<?xml version="1.0" standalone="no"?>
<!DOCTYPE svg PUBLIC "-//W3C//DTD SVG 20010904//EN"
 "http://www.w3.org/TR/2001/REC-SVG-20010904/DTD/svg10.dtd">
<svg version="1.0" xmlns="http://www.w3.org/2000/svg"
 width="1600.000000pt" height="1376.000000pt" viewBox="0 0 1600.000000 1376.000000"
 preserveAspectRatio="xMidYMid meet">
<metadata>
Created by potrace 1.16, written by Peter Selinger 2001-2019
</metadata>
<g transform="translate(0.000000,1376.000000) scale(0.100000,-0.100000)"
fill="#000000" stroke="none">
<path d="M0 6880 l0 -6880 611 0 c563 0 613 1 640 17 28 17 31 17 60 0 17 -9
48 -17 69 -17 l38 0 -34 34 c-45 45 -47 89 -4 111 17 9 30 20 30 25 0 15 30
40 49 40 19 0 101 -72 101 -89 0 -19 -15 -12 -50 24 -37 38 -64 45 -74 18 -5
-11 5 -28 29 -53 58 -59 43 -71 -18 -15 -31 29 -42 33 -58 25 -10 -6 -19 -13
-19 -16 0 -12 23 -46 50 -74 l29 -30 1351 0 c742 0 1350 1 1350 3 0 1 -7 27
-15 57 -33 122 -4 231 85 320 154 155 400 158 535 8 45 -49 93 -148 101 -208
6 -43 -5 -124 -21 -162 -7 -17 54 -18 1190 -18 1120 0 1199 1 1226 17 28 17
31 17 60 0 17 -9 48 -17 69 -17 l38 0 -34 34 c-45 45 -47 89 -4 111 17 9 30
20 30 25 0 15 30 40 49 40 19 0 101 -72 101 -89 0 -19 -15 -12 -50 24 -37 38
-64 45 -74 18 -5 -11 5 -28 29 -53 58 -59 43 -71 -18 -15 -31 29 -42 33 -58
25 -10 -6 -19 -13 -19 -16 0 -12 23 -46 50 -74 l29 -30 1351 0 c742 0 1350 1
1350 3 0 1 -7 27 -15 57 -20 74 -19 120 5 191 28 82 55 120 117 165 163 119
377 107 498 -28 49 -54 95 -154 102 -220 4 -49 -4 -107 -22 -150 -7 -17 54
-18 1190 -18 1120 0 1199 1 1226 17 28 17 31 17 60 0 17 -9 48 -17 69 -17 l38
0 -34 34 c-45 45 -47 89 -4 111 16 9 30 20 30 25 0 15 30 40 49 40 19 0 101
-72 101 -89 0 -19 -15 -12 -50 24 -37 38 -64 45 -74 18 -5 -11 5 -28 29 -53
58 -59 43 -71 -18 -15 -31 29 -42 33 -58 25 -10 -6 -19 -13 -19 -16 0 -12 23
-46 50 -74 l29 -30 1276 0 1275 0 0 1290 0 1289 -24 -10 c-50 -23 -115 44 -95
99 5 12 12 22 17 22 17 0 21 -13 11 -32 -22 -40 37 -88 69 -56 23 23 12 49
-42 106 -70 72 -61 91 10 21 l54 -53 0 2952 0 2952 -24 -11 c-50 -23 -115 44
-95 99 5 12 12 22 17 22 17 0 21 -13 11 -32 -22 -40 37 -88 69 -56 23 23 12
49 -42 106 -70 72 -61 91 10 21 l54 -53 0 2542 0 2542 -8000 0 -8000 0 0
-6880z m4595 5606 c102 -27 176 -93 229 -206 27 -56 31 -75 30 -145 0 -66 -5
-90 -27 -135 -28 -56 -70 -110 -87 -110 -13 0 -14 -5 20 93 52 149 33 256 -60
340 -66 60 -128 80 -229 76 -72 -4 -83 -7 -134 -42 -75 -52 -107 -114 -107
-206 0 -64 22 -132 53 -169 10 -12 13 -11 17 9 4 17 13 24 30 24 33 0 39 -37
10 -58 -20 -14 -20 -15 12 -28 18 -8 65 -14 104 -14 62 0 76 4 112 29 23 16
42 35 42 42 0 7 7 20 16 28 21 22 21 113 0 154 -23 44 -71 72 -124 72 -37 0
-50 -6 -78 -34 -27 -27 -34 -42 -34 -72 0 -53 19 -85 58 -101 19 -8 31 -10 28
-4 -3 5 1 12 10 15 11 4 14 14 9 35 -4 20 -1 34 10 45 20 20 29 20 49 0 23
-22 20 -58 -8 -91 -13 -15 -25 -37 -27 -47 -2 -10 -12 -24 -22 -30 -15 -9 -22
-7 -37 11 -10 13 -28 24 -40 26 -35 6 -87 54 -100 93 -40 121 55 240 190 238
96 -1 169 -57 206 -161 20 -56 16 -161 -6 -148 -5 3 -6 -3 -3 -13 7 -29 -78
-116 -145 -148 -110 -53 -249 -32 -338 51 -26 25 -56 47 -65 50 -14 5 -18 17
-18 53 1 26 -4 60 -10 75 -17 44 -13 106 11 177 59 171 269 275 453 226z
m5992 2 c105 -26 184 -94 234 -202 16 -34 31 -82 35 -106 6 -43 -5 -124 -21
-163 -7 -17 18 -17 496 -17 993 1 959 2 959 -15 0 -13 -89 -15 -737 -15 l-738
-1 -25 -34 c-24 -33 -48 -50 -57 -41 -2 2 3 20 11 40 l15 36 -29 0 c-22 0 -40
-11 -72 -47 -112 -121 -303 -131 -430 -22 -27 22 -48 47 -48 55 0 12 -60 14
-395 14 l-395 0 0 -580 c0 -509 -2 -580 -15 -580 -13 0 -15 73 -15 595 0 560
1 595 18 595 9 0 184 0 387 0 226 0 376 4 385 10 8 5 10 10 4 10 -12 0 -34 86
-34 136 0 43 33 144 62 187 73 113 264 181 405 145z m-3069 -317 c39 -37 53
-61 34 -61 -4 0 -23 16 -42 35 -37 38 -64 45 -74 18 -5 -11 5 -28 29 -53 58
-59 43 -71 -18 -15 -31 29 -42 33 -58 25 -22 -12 -23 -15 -8 -41 16 -30 47
-59 63 -59 8 0 17 -7 20 -16 6 -16 -9 -54 -22 -54 -19 0 -44 28 -41 45 2 10
-8 30 -23 46 -39 39 -38 83 2 104 17 9 30 20 30 25 0 15 30 40 49 40 9 0 36
-18 59 -39z m-921 -174 c3 -3 4 -257 3 -654 0 -227 -2 -263 -15 -263 -17 0
-16 -40 -15 533 l0 357 -715 0 c-626 0 -715 2 -715 15 0 13 47 15 338 17 350
3 1114 -1 1119 -5z m581 -129 l3 -28 835 0 c678 0 841 -3 867 -14 43 -17 93
-76 106 -123 7 -24 11 -217 11 -528 0 -489 0 -491 -22 -535 -15 -29 -40 -56
-72 -77 l-48 -33 -304 0 -304 0 0 -85 0 -85 76 0 c73 0 77 -1 111 -35 30 -30
34 -39 31 -77 l-3 -43 -449 -3 c-323 -1 -453 1 -462 9 -17 14 -18 53 -2 82 27
52 61 67 147 67 l71 0 0 85 0 84 -309 3 -309 3 -44 30 c-84 59 -82 48 -88 575
-3 256 -7 457 -8 447 -1 -9 -13 -22 -27 -29 -19 -9 -29 -8 -49 6 -43 28 -59
59 -45 90 7 14 15 26 19 26 15 0 19 -14 9 -26 -6 -8 -8 -25 -5 -39 8 -29 49
-44 72 -24 24 20 8 58 -47 114 -27 28 -44 52 -37 54 6 2 35 -21 64 -51 55 -58
64 -57 64 3 0 16 -4 29 -10 29 -14 0 -13 33 2 48 20 20 28 13 22 -20 l-6 -33
30 35 c22 25 31 45 32 71 0 42 16 61 50 57 19 -2 26 -10 28 -30z m5868 -91
c-4 -19 3 -26 50 -51 164 -86 271 -293 244 -471 -15 -108 -51 -184 -121 -260
l-37 -40 69 3 c304 15 532 -185 534 -468 1 -206 -125 -378 -325 -446 -50 -17
-90 -19 -455 -19 -397 0 -401 0 -465 24 -317 116 -417 502 -195 749 l47 52
-115 0 c-163 0 -240 28 -346 126 -73 67 -126 167 -144 267 -40 236 129 477
369 527 64 13 819 9 848 -4 16 -8 18 -6 13 6 -7 19 0 28 21 28 10 0 12 -7 8
-23z m-9573 -58 c12 -6 29 -20 37 -30 14 -17 37 -18 319 -20 293 -1 305 -1
320 19 18 22 53 42 74 42 28 0 67 -48 67 -82 1 -31 12 -41 166 -158 90 -69
176 -134 189 -144 20 -16 28 -17 37 -8 22 22 75 14 97 -14 25 -32 27 -61 6
-91 -14 -20 -12 -28 32 -117 38 -77 52 -96 69 -96 70 0 102 -99 45 -141 l-28
-21 -7 -157 -7 -158 30 -31 c17 -17 31 -37 31 -46 0 -31 -23 -65 -53 -77 -25
-11 -34 -10 -59 4 -28 16 -32 16 -91 -6 -262 -94 -307 -113 -307 -129 0 -30
-22 -65 -47 -77 -20 -9 -24 -17 -19 -39 3 -15 8 -80 12 -145 6 -112 8 -119 30
-129 36 -17 49 -83 22 -115 -36 -44 -121 -30 -134 23 -11 45 5 75 54 101 2 1
-1 68 -8 149 -11 138 -13 148 -38 169 -53 45 -14 141 54 133 29 -3 37 4 137
137 59 77 154 202 212 278 98 129 105 141 99 173 -3 19 -1 47 6 63 11 26 7 38
-36 125 -40 80 -52 96 -72 96 -12 0 -33 10 -46 23 -18 18 -29 21 -57 16 -19
-4 -50 -10 -69 -13 -28 -5 -38 -13 -47 -36 -15 -41 -69 -64 -112 -49 -57 20
-76 95 -35 140 12 14 10 23 -14 75 -15 32 -44 94 -62 136 -22 49 -41 77 -51
78 -11 0 -34 -50 -83 -182 -37 -101 -85 -228 -106 -283 -171 -445 -228 -610
-218 -628 5 -11 8 -30 5 -44 -4 -21 3 -28 66 -60 66 -33 73 -34 108 -23 52 18
83 7 104 -35 16 -34 16 -37 -3 -69 l-19 -33 58 -149 c53 -134 62 -151 89 -161
39 -15 57 -54 42 -88 -26 -56 -99 -55 -124 1 -10 21 -9 31 5 55 16 29 15 32
-39 172 -66 168 -62 161 -80 146 -12 -10 -13 -9 -8 5 4 10 1 16 -8 16 -24 0
-58 39 -58 68 0 25 -8 31 -79 64 -51 23 -84 32 -93 27 -26 -17 -78 -10 -102
14 -13 13 -25 29 -27 35 -2 7 -80 33 -173 58 -155 42 -173 45 -207 34 -56 -19
-87 -7 -109 43 -13 28 -36 55 -67 77 -59 41 -146 104 -194 141 -30 23 -43 27
-78 22 -35 -5 -46 -2 -66 17 -34 31 -33 80 0 111 24 23 25 28 25 170 l0 145
-30 22 c-24 18 -30 30 -30 61 0 62 55 95 110 66 l31 -16 252 129 c234 120 252
132 255 158 4 34 18 53 47 64 28 12 33 12 58 -1z m7962 -39 c0 -13 -106 -16
-875 -20 l-875 -5 0 -220 c0 -201 -1 -220 -17 -223 -17 -3 -18 13 -18 236 0
131 3 242 7 245 3 4 405 6 892 5 780 -3 886 -5 886 -18z m-5584 -10 c277 0
319 -2 319 -15 0 -13 -64 -15 -515 -15 -448 0 -515 2 -515 15 0 12 29 15 183
17 100 2 188 2 195 1 8 -2 157 -3 333 -3z m-3651 -27 c50 -29 63 -83 33 -134
-55 -93 -197 -29 -173 78 9 40 6 36 45 56 39 21 60 21 95 0z m321 -6 c30 -20
34 -29 37 -71 4 -54 -8 -73 -54 -92 -40 -17 -82 -6 -108 29 -37 50 -18 124 39
148 33 13 50 10 86 -14z m10971 -27 c-6 -11 -12 -22 -12 -25 0 -3 56 -5 125
-5 120 0 127 -1 150 -25 25 -24 25 -27 25 -190 0 -129 -3 -166 -12 -163 -10 3
-14 49 -18 162 -6 195 1 186 -154 186 -95 -1 -108 -3 -93 -14 18 -14 22 -32 8
-40 -10 -7 -91 54 -91 69 0 6 14 28 31 48 23 28 35 35 43 27 7 -7 7 -16 -2
-30z m-7324 -272 c3 -17 -26 -18 -512 -18 -423 0 -516 2 -516 13 0 8 3 17 7
20 3 4 234 6 512 5 473 -3 506 -4 509 -20z m5262 -43 c0 -13 -93 -15 -775 -15
-682 0 -775 2 -775 15 0 13 93 15 775 15 682 0 775 -2 775 -15z m-9300 -1011
c0 -850 -2 -964 -15 -964 -13 0 -15 51 -15 398 -1 1001 1 1526 6 1534 3 4 10
6 15 3 5 -4 9 -386 9 -971z m315 160 c0 -712 -2 -809 -15 -809 -13 0 -15 97
-18 800 -1 440 0 806 3 813 3 8 11 12 18 9 9 -3 12 -175 12 -813z m1860 609
c11 -40 36 -43 59 -8 22 33 43 32 99 -6 48 -32 55 -46 36 -80 -5 -11 -7 -28
-4 -38 5 -16 13 -18 45 -14 l39 5 15 -53 c9 -29 16 -60 16 -69 0 -22 -20 -40
-46 -40 -35 0 -36 -34 -3 -64 32 -29 31 -38 -13 -103 -31 -47 -42 -51 -75 -28
-32 23 -53 9 -53 -35 0 -21 -6 -42 -12 -47 -17 -13 -118 -34 -129 -28 -4 3
-11 21 -15 40 -8 42 -31 46 -62 10 -28 -32 -38 -31 -95 5 -48 30 -61 62 -36
87 6 6 8 21 4 32 -5 18 -12 21 -40 15 -28 -5 -36 -2 -49 18 -8 12 -18 46 -22
74 l-6 52 36 12 c25 8 36 18 36 31 0 10 -4 19 -10 19 -5 0 -17 11 -26 25 -15
23 -15 27 9 68 39 66 53 75 88 54 43 -24 60 -13 57 36 -3 39 -1 42 32 54 19 7
53 11 75 10 36 -2 41 -5 50 -34z m7060 -155 c45 -24 85 -68 106 -113 17 -37
19 -80 19 -652 l0 -613 65 0 c64 0 65 0 65 -27 -1 -66 -54 -136 -124 -162 -15
-6 -207 -11 -481 -12 -353 -1 -455 -4 -455 -13 0 -7 11 -23 25 -36 28 -27 33
-71 10 -90 -21 -17 -32 -4 -17 20 15 25 16 22 -13 56 -14 16 -25 37 -25 47 0
16 -29 17 -464 17 -304 0 -474 4 -493 11 -62 23 -113 93 -113 154 l0 35 65 0
65 0 0 543 c0 298 2 574 4 613 7 119 42 178 131 220 l50 24 775 -2 c700 -3
778 -5 805 -20z m453 -249 c3 -194 -1 -189 150 -189 101 0 104 1 89 18 -39 43
4 44 56 1 40 -33 40 -37 -8 -94 -19 -23 -27 -27 -36 -18 -9 9 -8 18 5 37 l16
26 -127 0 c-133 1 -149 5 -171 47 -13 24 -17 314 -5 327 22 21 28 -11 31 -155z
m-5261 33 c239 -65 464 -248 561 -457 94 -202 108 -464 35 -670 -98 -274 -323
-480 -608 -556 -113 -30 -297 -31 -417 -1 -321 79 -562 324 -643 652 -27 105
-25 296 3 402 44 165 127 304 250 420 132 124 270 194 462 232 58 11 286 -3
357 -22z m2664 -141 c21 -22 29 -39 29 -66 0 -27 -8 -44 -29 -66 -39 -38 -87
-39 -130 -3 -26 21 -31 33 -31 69 0 36 5 48 31 69 43 36 91 35 130 -3z m4950
-80 c62 -62 20 -161 -68 -161 -49 0 -93 45 -93 95 0 27 8 44 29 66 22 21 39
29 66 29 27 0 44 -8 66 -29z m-4947 -242 c37 -44 34 -83 -9 -126 -30 -30 -40
-35 -67 -29 -50 10 -76 32 -83 70 -13 69 23 116 91 116 35 0 47 -5 68 -31z
m2689 7 c3 -8 6 -175 6 -373 l0 -358 752 -3 c495 -1 756 1 763 8 13 13 116 13
116 0 0 -6 116 -10 329 -10 210 0 331 -4 333 -10 2 -5 2 -325 0 -710 -2 -692
-2 -700 -22 -700 -20 0 -20 7 -20 688 l1 687 -226 3 c-137 1 -225 -1 -225 -7
0 -5 8 -12 18 -15 34 -11 109 -142 122 -212 21 -109 -13 -227 -84 -293 -14
-14 -29 -22 -32 -18 -3 3 8 45 25 92 52 144 36 241 -53 330 -67 67 -127 88
-234 84 -97 -5 -161 -40 -207 -114 -27 -44 -30 -56 -30 -134 0 -76 3 -91 28
-134 16 -26 47 -60 70 -75 36 -23 52 -27 118 -27 66 0 81 4 118 28 52 34 71
76 71 155 0 45 -5 66 -21 86 -29 36 -70 56 -120 56 -56 0 -109 -50 -109 -103
0 -50 16 -85 44 -98 37 -17 61 1 61 47 0 48 25 66 54 40 30 -27 26 -61 -12
-102 -28 -31 -39 -36 -76 -36 -162 2 -204 209 -63 307 38 26 52 30 111 29 96
0 152 -41 197 -142 26 -58 30 -97 13 -157 -10 -36 -62 -115 -82 -123 -4 -2
-13 -10 -20 -17 -22 -21 -79 -48 -130 -59 l-48 -11 45 -23 44 -24 21 21 c11
11 38 25 60 32 34 10 47 9 86 -5 80 -31 117 -122 80 -199 -17 -37 -69 -77 -99
-77 -14 0 -16 -28 -16 -288 l0 -287 48 -22 c54 -25 82 -69 82 -131 0 -72 -68
-142 -138 -142 -36 0 -101 26 -117 47 -8 10 -27 3 -90 -33 -44 -26 -98 -57
-120 -69 -22 -13 -92 -53 -154 -89 -63 -36 -119 -66 -124 -66 -4 0 -5 -19 -2
-43 14 -93 -53 -171 -146 -170 -86 1 -143 65 -138 155 l3 50 -50 28 c-27 15
-76 44 -109 62 -33 19 -120 69 -193 111 l-132 78 -28 -26 c-99 -92 -268 11
-233 143 15 53 44 88 86 102 l35 12 0 286 -1 287 -42 20 c-55 26 -92 94 -81
150 20 109 161 159 239 85 l23 -22 123 70 c68 38 178 101 244 139 l119 70 -3
46 c-5 90 54 157 138 157 89 0 146 -59 145 -150 l-1 -56 58 -32 c62 -34 77
-39 61 -19 -5 6 -18 38 -27 70 -17 60 -15 123 7 197 14 48 65 123 99 146 16
10 29 22 29 27 0 4 -315 7 -700 7 l-700 0 0 30 c0 17 0 190 0 385 0 195 0 360
0 365 0 15 27 12 33 -4z m2256 -82 c65 -54 22 -164 -64 -164 -50 0 -95 44 -95
93 0 86 93 127 159 71z m-10449 -614 c0 -503 0 -510 -20 -510 -20 0 -20 7 -20
493 l0 492 -450 -3 c-446 -2 -450 -2 -450 18 0 20 5 20 470 20 l470 0 0 -510z
m5084 502 c19 -31 -11 -32 -556 -30 -301 2 -549 6 -553 10 -26 25 28 28 555
28 302 0 551 -4 554 -8z m389 -103 c77 -39 72 -149 -8 -179 -33 -13 -90 6
-109 35 -54 82 32 188 117 144z m4953 -75 c27 -7 54 -54 54 -94 0 -46 -47 -90
-95 -90 -45 0 -95 45 -95 85 0 32 24 81 47 94 20 12 57 14 89 5z m-691 -44 c0
-13 -81 -15 -659 -18 -392 -1 -664 2 -669 7 -29 29 13 31 666 29 581 -3 662
-5 662 -18z m-4655 -105 c0 -7 -193 -11 -555 -13 -491 -2 -555 0 -555 13 0 13
64 15 555 13 362 -2 555 -6 555 -13z m-5284 -57 c19 -10 41 -36 53 -61 19 -39
21 -61 21 -217 0 -153 -2 -179 -20 -215 -38 -79 -38 -79 -440 -85 l-355 -5
-69 -33 c-62 -29 -71 -31 -85 -18 -13 14 -8 29 42 139 l57 124 0 131 c0 137 7
171 43 211 46 49 59 51 402 48 281 -2 324 -4 351 -19z m-1881 -163 c52 -18
135 -72 135 -87 0 -10 32 -45 37 -40 2 1 10 2 19 2 13 0 15 -7 12 -32 -3 -18
2 -48 10 -68 9 -21 15 -66 16 -116 0 -69 -4 -89 -28 -137 -29 -57 -81 -116
-92 -104 -4 3 6 39 20 79 39 103 48 156 28 167 -10 6 -13 17 -9 37 13 72 -80
180 -181 210 -160 47 -308 -17 -353 -153 -6 -21 -9 -65 -7 -103 6 -84 37 -143
96 -184 37 -26 54 -31 115 -34 66 -3 76 -1 120 27 58 37 77 77 77 159 0 45 -5
66 -21 86 -29 36 -70 56 -120 56 -56 0 -109 -50 -109 -103 0 -50 16 -85 44
-98 37 -17 61 1 61 47 0 48 25 66 54 40 30 -27 26 -61 -12 -102 -28 -31 -39
-36 -74 -36 -83 1 -143 58 -150 141 -6 61 27 126 85 166 38 26 52 30 111 29
70 0 107 -17 155 -69 28 -30 66 -121 66 -158 0 -156 -162 -292 -326 -273 -185
22 -305 183 -275 372 23 147 112 245 266 291 52 15 167 9 230 -12z m6000 0
c28 -10 66 -30 86 -46 l36 -28 469 -3 c437 -3 469 -4 472 -20 3 -17 -24 -18
-452 -18 l-456 0 29 -47 c47 -78 64 -202 30 -224 -8 -5 155 -9 419 -9 407 0
433 -1 430 -17 -3 -17 -35 -18 -443 -23 -242 -3 -432 -6 -423 -8 14 -2 15 -7
7 -31 -12 -33 -75 -111 -91 -111 -14 0 -2 44 27 103 l24 47 -47 0 c-26 0 -42
-4 -35 -8 10 -6 8 -18 -7 -48 -50 -101 -149 -158 -270 -158 -93 1 -152 25
-214 88 -74 74 -104 172 -87 282 22 144 98 231 248 283 69 25 169 23 248 -4z
m-2945 -32 c0 -4 -12 -19 -26 -34 l-26 -27 23 -31 23 -31 22 27 c12 16 18 30
13 31 -15 6 -10 22 6 22 8 0 15 -4 15 -10 0 -5 16 -9 35 -8 71 3 122 -68 95
-132 -14 -34 -55 -60 -94 -60 -34 0 -83 44 -92 82 -4 20 -25 48 -55 76 -50 45
-68 83 -30 62 16 -8 25 -5 45 15 24 24 46 33 46 18z m4514 -17 c120 -50 159
-215 73 -312 -97 -112 -265 -93 -335 36 -49 92 -11 214 83 267 47 27 128 31
179 9z m-4989 -72 c50 -54 21 -146 -49 -160 -92 -17 -150 84 -90 155 22 26 33
31 70 31 36 0 50 -5 69 -26z m308 6 c14 -11 31 -19 38 -18 6 2 14 -3 16 -9 3
-7 0 -13 -6 -13 -21 0 -11 -42 14 -62 28 -22 34 -68 11 -87 -19 -16 -32 4 -16
24 8 10 8 19 0 34 -14 27 -18 26 -45 -3 -12 -13 -28 -25 -36 -28 -10 -4 -5
-13 20 -35 20 -18 31 -35 27 -42 -5 -8 -19 0 -42 23 -43 43 -70 51 -78 22 -4
-15 4 -31 29 -56 19 -20 35 -39 35 -43 0 -15 -19 -6 -48 24 -20 21 -37 30 -53
27 -33 -4 -30 -29 9 -72 35 -39 38 -46 19 -46 -6 0 -27 16 -45 35 -45 50 -42
93 9 119 13 6 24 17 24 23 0 6 3 14 6 18 4 3 -4 18 -18 31 -22 22 -25 32 -20
70 3 30 12 51 27 64 30 26 90 26 123 0z m-1172 -409 c43 -44 41 -101 -6 -148
-22 -22 -35 -45 -36 -61 0 -15 -5 -43 -12 -62 -11 -30 -9 -40 11 -79 29 -58
28 -99 -4 -146 l-26 -38 18 -61 c13 -43 19 -95 19 -176 0 -109 -2 -119 -32
-182 -44 -93 -100 -150 -194 -197 -119 -60 -205 -76 -389 -75 -170 1 -255 17
-366 70 -82 39 -175 134 -204 209 -32 80 -38 223 -16 334 l16 80 -25 27 c-37
39 -42 86 -16 148 17 43 19 57 10 89 -5 21 -7 46 -4 57 4 13 0 22 -13 29 -11
6 -27 27 -37 47 -45 95 52 187 150 142 33 -15 55 -56 55 -102 0 -46 -40 -93
-86 -102 -29 -5 -34 -10 -34 -34 0 -54 8 -61 43 -39 34 20 100 25 140 10 19
-7 40 -4 88 16 167 68 399 70 574 6 80 -29 85 -29 142 -12 38 12 48 11 92 -8
56 -23 61 -20 61 42 0 26 -5 35 -22 40 -60 18 -92 87 -68 146 17 41 47 59 98
59 35 0 49 -6 73 -29z m978 -201 l426 0 135 -195 c74 -108 190 -275 258 -373
98 -140 607 -878 779 -1127 19 -27 37 -52 39 -54 2 -2 4 139 4 315 -1 175 0
570 0 877 l0 557 470 0 470 0 0 -1545 c0 -1229 3 -1545 13 -1546 10 0 10 -2 0
-6 -7 -2 -13 -18 -13 -33 0 -34 30 -55 66 -46 40 10 32 56 -16 99 -22 19 -40
43 -40 53 0 14 13 6 49 -31 62 -62 71 -92 39 -130 -20 -23 -29 -26 -56 -20
-18 3 -32 11 -32 16 0 5 -194 9 -478 9 -457 0 -479 1 -488 19 -5 10 -58 89
-119 175 -60 87 -164 235 -229 329 -66 95 -151 218 -190 274 -39 56 -123 177
-186 269 -63 92 -135 195 -160 230 -25 35 -103 148 -175 252 l-130 189 -3
-465 -2 -466 24 -35 c54 -78 71 -131 70 -216 -1 -65 -6 -90 -28 -137 -15 -31
-36 -64 -47 -74 -17 -16 -19 -32 -19 -181 l0 -163 -470 0 -470 0 0 1590 0
1590 35 0 c21 0 35 5 36 13 0 10 2 10 6 0 4 -10 99 -13 432 -13z m5691 -129
c0 -12 -11 -33 -24 -46 l-23 -23 64 -64 c182 -179 263 -397 263 -713 0 -326
-90 -560 -288 -747 -38 -36 -100 -83 -136 -105 -36 -22 -64 -42 -61 -44 2 -3
-4 -5 -13 -6 -9 -1 -62 -17 -117 -36 -202 -72 -338 -87 -780 -87 l-335 0 0
-590 0 -590 -505 0 -505 0 0 1590 0 1590 885 0 c565 0 921 -4 983 -11 186 -20
357 -72 477 -145 33 -19 56 -32 52 -28 -4 4 2 13 13 21 32 23 23 51 -35 112
-30 32 -52 61 -48 65 12 12 133 -119 133 -143z m1800 -1066 l0 -1195 780 0
780 0 0 -117 c1 -107 2 -116 16 -98 32 44 45 55 62 55 20 0 102 -72 102 -89 0
-19 -15 -12 -50 24 -36 37 -67 45 -77 19 -3 -10 8 -29 31 -53 55 -57 46 -73
-13 -21 -18 17 -42 30 -52 30 -30 0 -24 -45 11 -78 17 -16 30 -32 30 -36 0
-15 -30 -4 -44 16 -15 21 -16 5 -17 -195 -1 -119 -2 -223 -3 -229 -1 -10 -265
-14 -1278 -16 l-1278 -2 0 207 c-1 183 -2 204 -14 178 -15 -34 -52 -75 -66
-75 -13 0 -14 -5 20 93 35 103 38 165 10 240 -25 66 -91 132 -161 158 -75 29
-183 26 -243 -6 -53 -28 -59 -34 -100 -88 -28 -36 -28 -38 -11 -57 20 -23 13
-50 -15 -57 -11 -3 -17 -10 -14 -15 4 -6 0 -14 -7 -19 -10 -6 -11 -9 -1 -9 6
0 12 -9 12 -20 0 -13 7 -20 20 -20 26 0 37 -27 21 -52 -16 -26 5 -58 61 -96
36 -23 51 -27 118 -27 66 0 82 4 117 27 48 32 74 82 75 147 0 91 -55 151 -140
151 -59 0 -112 -49 -112 -103 0 -76 39 -120 87 -98 20 9 23 16 18 40 -4 20 -1
34 10 45 20 20 29 20 49 0 26 -25 19 -63 -18 -100 -29 -29 -41 -34 -82 -34
-85 0 -144 67 -144 164 0 91 94 172 200 170 96 -1 169 -57 206 -161 52 -147
-71 -315 -251 -340 -45 -6 -164 20 -180 40 -5 6 -22 11 -37 9 -20 -2 -28 2
-34 20 -4 13 -17 37 -29 53 -66 87 -79 246 -30 348 53 110 147 175 287 199
121 21 235 -17 313 -104 20 -22 43 -54 51 -72 11 -26 13 151 14 1207 l0 1237
500 0 500 0 0 -1195z m-8848 76 c86 -34 152 -91 187 -164 37 -75 45 -140 19
-145 -14 -3 -18 3 -18 31 0 49 -54 151 -100 187 -21 17 -60 40 -87 53 -45 21
-62 22 -263 22 -215 0 -215 0 -275 -28 -101 -47 -168 -132 -177 -222 -3 -29
-9 -41 -22 -43 -17 -4 -18 1 -13 46 8 69 47 142 102 190 97 85 167 102 410 99
159 -3 187 -6 237 -26z m-1142 -692 c3 -200 6 -358 8 -351 1 7 6 11 11 8 5 -3
11 5 15 17 3 13 16 28 29 34 28 13 64 -5 105 -50 36 -39 10 -40 -33 -1 -68 60
-104 22 -41 -43 46 -48 34 -65 -13 -19 -45 44 -81 48 -81 11 0 -17 12 -36 35
-56 19 -17 32 -35 29 -41 -3 -5 -19 3 -35 18 l-29 28 2 -1655 c0 -910 4 -1634
7 -1609 l6 45 14 -67 c11 -55 11 -80 1 -133 -7 -36 -16 -65 -21 -65 -5 0 -9
-246 -9 -571 l0 -571 2323 3 2322 2 5 1196 c5 1129 6 1196 23 1199 16 3 17
-60 17 -1212 l0 -1216 -927 1 c-511 0 -1574 -1 -2363 -3 l-1435 -3 -3 544 c-2
543 -2 544 -22 526 -30 -27 -35 -12 -14 44 12 33 21 47 26 38 4 -6 8 50 8 125
0 78 -4 137 -9 135 -5 -1 -20 13 -33 32 -38 56 -91 91 -164 111 -131 34 -248
-6 -309 -105 -27 -44 -30 -56 -30 -134 0 -73 4 -93 25 -131 14 -24 44 -58 68
-74 37 -26 54 -31 115 -34 66 -3 76 -1 120 27 58 37 77 77 77 159 0 45 -5 66
-21 86 -29 36 -70 56 -120 56 -56 0 -109 -50 -109 -103 0 -73 34 -114 85 -101
22 5 25 11 23 46 -4 52 20 72 51 44 30 -27 26 -61 -12 -102 -28 -31 -39 -36
-76 -36 -162 2 -204 209 -63 307 38 26 52 30 111 29 97 0 152 -41 198 -144 56
-124 -6 -263 -147 -329 -142 -67 -335 -2 -399 134 -65 139 -42 300 58 401 43
43 121 86 194 104 117 31 299 -26 351 -110 14 -23 15 159 16 1946 0 1084 3
1974 7 1978 24 24 28 -18 33 -365z m11945 136 c0 -20 -8 -20 -825 -23 -454 -1
-835 0 -847 3 -25 6 -31 30 -10 38 6 3 388 5 847 4 828 -2 835 -2 835 -22z
m-11527 -948 c2 -922 2 -927 -18 -927 -20 0 -20 6 -20 923 0 508 3 927 7 931
26 26 28 -31 31 -927z m400 -6 c-3 -863 -4 -916 -20 -919 -17 -3 -18 46 -18
921 0 508 3 927 7 930 3 4 12 2 20 -4 11 -10 13 -169 11 -928z m420 6 c2 -922
2 -927 -18 -927 -20 0 -20 6 -20 923 0 508 3 927 7 931 26 26 28 -31 31 -927z
m7194 690 c46 -25 84 -78 96 -135 18 -78 -15 -156 -87 -207 -37 -26 -51 -30
-109 -30 -57 0 -73 5 -109 29 -109 73 -123 224 -29 315 63 61 158 72 238 28z
m3506 -230 l3 -117 37 -34 c20 -19 34 -37 30 -41 -9 -9 -57 26 -60 45 -2 8 -5
-250 -8 -575 -5 -551 -6 -590 -22 -593 -17 -3 -18 26 -18 507 l0 511 -22 0
c-13 0 -42 20 -70 47 -51 50 -65 83 -27 63 17 -10 23 -7 40 14 11 14 25 26 30
26 16 0 10 -26 -11 -45 -11 -10 -20 -23 -20 -29 0 -15 34 -44 57 -48 16 -3 18
7 21 112 2 114 2 115 -16 91 -37 -46 -112 -18 -112 41 0 31 38 78 64 78 22 0
46 -11 46 -21 0 -5 -11 -4 -26 1 -21 8 -29 6 -50 -15 -18 -19 -23 -31 -19 -48
15 -49 68 -63 87 -22 12 27 -2 55 -29 55 -20 0 -27 -28 -12 -47 12 -14 12 -16
-1 -11 -9 3 -15 17 -15 34 0 24 5 30 27 32 17 2 31 -4 40 -17 13 -19 15 -16
16 34 l1 55 -824 0 c-819 0 -825 0 -825 20 0 20 5 20 843 18 l842 -3 3 -118z
m-3830 -694 c-3 -17 -39 -18 -583 -18 -544 0 -580 1 -583 18 -3 16 30 17 583
17 553 0 586 -1 583 -17z m2 -318 c0 -13 -72 -15 -585 -15 -513 0 -585 2 -585
15 0 13 72 15 585 15 513 0 585 -2 585 -15z m-2 -317 c3 -17 -30 -18 -582 -18
-482 0 -586 2 -586 13 0 8 3 17 7 20 3 4 266 6 582 5 539 -3 576 -4 579 -20z
m-5348 -117 c5 -11 19 -143 31 -293 11 -150 22 -283 25 -295 4 -21 10 -23 73
-23 l68 0 6 63 c4 34 12 136 18 227 13 171 25 220 58 220 41 0 49 -28 65 -220
9 -102 18 -209 22 -237 l5 -53 49 0 49 0 5 43 c3 23 10 94 16 157 13 137 15
147 42 161 16 9 24 7 40 -8 16 -16 22 -49 36 -184 16 -156 18 -164 40 -167 20
-3 22 1 23 45 1 65 10 93 35 110 18 12 24 11 43 -4 17 -14 23 -33 28 -85 5
-63 8 -68 29 -68 13 0 24 3 24 8 0 13 20 175 25 210 7 39 35 44 35 6 0 -53
-41 -357 -51 -375 -12 -24 -51 -25 -65 -1 -7 10 -15 41 -19 70 -6 46 -10 52
-31 52 -19 0 -24 -5 -24 -25 0 -42 -27 -95 -48 -95 -28 0 -45 25 -51 73 l-6
42 -45 0 -45 0 -17 -205 c-10 -113 -20 -220 -23 -237 -9 -52 -62 -67 -85 -24
-4 9 -17 119 -26 244 l-18 227 -52 0 -52 0 -6 -87 c-4 -49 -14 -164 -21 -258
-8 -93 -17 -215 -21 -270 -8 -123 -23 -165 -58 -165 -15 0 -30 8 -36 21 -6 11
-22 163 -35 337 -14 174 -27 341 -30 370 l-6 52 -65 0 c-35 0 -64 -1 -65 -2 0
-2 -13 -112 -28 -245 -17 -149 -33 -248 -41 -258 -19 -22 -53 -15 -66 15 -7
14 -19 108 -28 210 -27 297 -23 280 -62 280 -38 0 -39 -3 -48 -108 -3 -35 -10
-72 -16 -82 -13 -24 -52 -26 -70 -5 -10 13 -28 118 -30 178 0 11 -8 17 -24 17
-26 0 -25 2 -41 -122 -7 -52 -24 -73 -54 -63 -20 6 -35 40 -46 110 -10 67 -15
75 -41 75 -17 0 -24 -6 -24 -20 0 -10 -5 -42 -11 -70 -9 -40 -15 -50 -31 -50
-17 0 -19 4 -13 28 4 15 15 68 25 117 21 107 27 122 47 129 24 10 53 -23 59
-66 6 -35 9 -38 39 -38 l33 0 7 84 c8 95 26 127 63 107 25 -13 29 -26 38 -119
l7 -73 31 3 31 3 12 125 c10 109 14 127 34 142 19 16 25 17 43 5 25 -17 32
-47 41 -178 l7 -99 64 0 64 0 0 33 c0 64 60 559 70 578 14 25 56 25 70 0z
m-2187 -174 c44 -25 92 -92 101 -143 10 -52 -17 -133 -56 -171 -108 -105 -267
-75 -329 62 -25 54 -24 112 4 165 54 107 175 144 280 87z m6955 -411 c2 -413
1 -437 -15 -434 -17 3 -18 32 -21 428 -1 234 0 431 3 438 3 8 11 12 18 10 9
-4 13 -103 15 -442z m320 -5 c-3 -396 -4 -426 -20 -429 -17 -3 -18 23 -18 431
0 238 3 437 7 440 3 4 12 2 20 -4 11 -10 13 -89 11 -438z m632 3 c0 -409 -1
-435 -17 -432 -17 3 -18 33 -21 427 -2 416 1 463 29 445 5 -3 9 -198 9 -440z
m-318 18 c2 -230 2 -426 0 -434 -2 -9 -10 -19 -18 -22 -12 -5 -14 55 -14 434
0 382 2 440 15 440 13 0 15 -57 17 -418z m-6192 388 c0 -20 -7 -20 -498 -20
-274 0 -501 3 -505 6 -3 3 -3 12 0 20 4 12 85 14 504 14 492 0 499 0 499 -20z
m7490 -28 c95 -47 150 -111 181 -211 19 -65 20 -88 17 -358 l-3 -288 -32 -66
c-96 -195 -333 -265 -511 -150 -69 45 -107 88 -141 161 l-26 55 0 315 0 315
27 57 c49 106 156 189 265 208 77 13 142 2 223 -38z m1270 -25 c31 -16 54 -38
75 -72 l30 -48 0 -288 0 -287 -30 -44 c-17 -23 -51 -54 -75 -68 -45 -25 -47
-25 -333 -28 -354 -4 -383 0 -449 68 -29 30 -49 61 -53 82 -3 18 -5 157 -3
310 l3 276 31 39 c60 73 75 77 299 83 336 8 452 3 505 -23z m619 17 c29 -20
49 -68 43 -100 -7 -38 -50 -74 -89 -74 -43 0 -89 31 -97 66 -21 83 75 155 143
108z m332 -13 c66 -66 11 -177 -81 -163 -41 6 -80 54 -80 99 0 49 45 93 95 93
27 0 44 -8 66 -29z m320 0 c21 -22 29 -39 29 -66 0 -27 -8 -44 -29 -66 -73
-73 -196 1 -157 95 29 70 105 88 157 37z m-7454 -152 c175 -85 146 -337 -45
-380 -89 -20 -194 39 -228 126 -64 168 112 332 273 254z m2083 -114 c35 -36
34 -95 -3 -132 -60 -61 -162 -19 -162 66 0 89 101 130 165 66z m285 21 c39
-17 55 -42 55 -86 0 -44 -16 -69 -54 -85 -64 -27 -136 19 -136 85 0 33 31 78
60 89 35 13 36 13 75 -3z m-5270 -36 c0 -13 -45 -15 -337 -18 -334 -2 -338 -2
-338 18 0 20 4 20 338 18 292 -3 337 -5 337 -18z m4575 -90 c19 -19 20 -33 20
-229 l0 -208 47 -6 c75 -8 83 -25 83 -173 0 -147 -9 -164 -85 -164 l-45 0 0
-132 0 -133 172 5 c150 4 174 3 200 -12 l28 -18 0 -138 c0 -134 -1 -139 -23
-151 -16 -8 -75 -11 -200 -9 l-177 3 0 -285 c0 -157 -4 -290 -8 -296 -21 -32
-51 -34 -606 -34 -543 0 -556 0 -576 20 -20 20 -20 33 -20 980 0 947 0 960 20
980 20 20 33 20 585 20 552 0 565 0 585 -20z m2690 -122 c0 -13 -8 -18 -25
-18 l-25 0 0 -148 c0 -214 26 -295 129 -405 63 -68 232 -148 215 -102 -4 10
-14 13 -30 9 -19 -5 -23 -3 -18 10 7 18 47 31 64 21 6 -4 10 -19 8 -33 -3 -24
1 -27 34 -33 76 -12 201 18 276 67 23 15 23 16 5 37 l-18 22 24 -20 23 -20 48
52 c52 56 93 133 109 204 6 24 11 110 11 192 l0 147 -25 0 c-18 0 -25 5 -25
20 0 17 7 20 39 20 26 0 41 -5 45 -16 10 -26 7 -274 -5 -344 -31 -192 -191
-356 -382 -391 l-67 -12 0 -74 0 -73 101 0 c90 0 100 -2 97 -17 -3 -17 -21
-18 -218 -18 l-215 0 1 22 c0 13 -1 21 -4 18 -3 -2 -14 7 -24 21 -24 30 -62
29 -66 -2 -2 -14 9 -32 34 -53 23 -21 33 -36 27 -42 -10 -10 -93 71 -93 91 0
21 21 50 35 50 8 0 21 14 30 30 23 44 64 41 117 -8 24 -22 37 -42 31 -45 -6
-4 -21 3 -34 16 -42 39 -56 47 -73 41 -23 -9 -20 -27 9 -58 14 -15 25 -31 25
-37 0 -5 40 -9 90 -9 l90 0 0 75 c0 68 -2 75 -20 75 -11 0 -20 -5 -20 -11 0
-5 5 -7 12 -3 7 4 8 3 4 -4 -11 -18 -62 -14 -77 4 -13 15 -11 17 19 12 17 -2
32 -1 32 4 0 4 -14 8 -31 8 -53 0 -182 75 -244 142 -107 115 -135 207 -135
444 0 83 3 154 7 158 4 3 24 6 45 4 29 -1 38 -6 38 -20z m-7435 -118 c0 -13
-73 -15 -595 -15 -559 0 -595 1 -598 18 -3 16 29 17 595 15 524 -3 598 -5 598
-18z m2893 -317 l-3 -288 -540 -5 c-511 -5 -542 -6 -568 -24 -22 -15 -35 -17
-54 -10 -38 13 -67 57 -59 88 7 29 46 52 70 43 22 -9 22 -77 1 -77 -9 0 -15
10 -15 26 0 16 -5 24 -12 22 -18 -6 -22 -46 -8 -64 16 -19 66 -18 74 1 3 8 12
15 21 15 8 0 15 5 15 10 0 7 182 10 525 10 l525 0 0 270 c0 235 2 270 15 270
13 0 15 -36 13 -287z m2782 232 c0 -13 -31 -15 -212 -16 -192 -1 -421 -1 -440
1 -5 0 -8 7 -8 15 0 13 43 15 330 15 287 0 330 -2 330 -15z m-3504 -130 c75
-52 34 -175 -59 -175 -34 0 -84 44 -92 80 -7 31 22 93 48 104 25 10 83 5 103
-9z m321 0 c27 -19 45 -78 33 -110 -12 -31 -57 -65 -87 -65 -38 0 -79 26 -93
59 -26 63 20 131 87 131 21 0 48 -7 60 -15z m7672 -50 c189 -36 348 -133 447
-271 93 -131 132 -281 118 -464 -4 -63 -8 -140 -8 -171 0 -62 5 -71 111 -202
69 -86 79 -121 42 -156 -12 -11 -40 -22 -63 -26 -102 -16 -106 -17 -106 -36 0
-23 21 -69 32 -69 4 0 8 -13 8 -29 0 -20 -8 -35 -27 -49 -23 -17 -26 -23 -15
-33 20 -21 14 -54 -14 -80 -22 -21 -25 -29 -19 -65 8 -53 -15 -110 -58 -144
-27 -22 -43 -25 -123 -28 -80 -3 -217 15 -271 35 -10 4 -13 -12 -13 -67 0 -53
-3 -71 -12 -68 -9 3 -14 33 -16 92 l-3 88 28 -7 c171 -44 308 -56 368 -31 50
21 67 53 64 125 -2 55 1 65 25 90 l27 28 -23 28 c-21 27 -21 29 -4 39 10 6 28
18 39 27 l20 16 -20 29 c-27 37 -36 99 -18 114 8 6 44 16 80 21 70 10 105 23
105 40 0 18 -20 48 -91 137 -92 115 -95 128 -80 305 14 157 4 245 -39 359
-128 340 -575 501 -968 348 -162 -63 -304 -190 -373 -335 -59 -123 -73 -189
-74 -345 0 -174 18 -255 85 -375 83 -146 83 -151 87 -473 2 -192 0 -289 -8
-303 -6 -12 -14 -18 -17 -14 -4 4 -7 136 -8 293 -1 325 -6 352 -84 486 -75
128 -95 226 -87 425 6 158 31 250 99 366 113 190 288 303 553 359 50 10 230 5
304 -9z m-1553 -59 c40 -40 44 -80 13 -120 -30 -38 -64 -49 -105 -36 -43 14
-64 44 -64 90 0 92 92 130 156 66z m-8625 -169 c102 -27 138 -42 205 -88 78
-53 74 -13 74 -783 l0 -687 -46 -49 c-89 -96 -262 -144 -514 -144 -273 -1
-482 66 -545 174 -20 34 -20 48 -20 715 1 755 -2 716 67 768 122 91 281 128
528 122 125 -3 174 -8 251 -28z m9781 -107 c26 -27 36 -30 89 -30 l59 0 0
-120 0 -120 25 0 c22 0 25 4 25 35 0 24 5 35 15 35 9 0 15 -9 15 -24 0 -14 5
-28 10 -31 6 -3 10 -1 10 4 0 6 7 11 15 11 8 0 15 9 15 20 0 11 7 20 15 20 8
0 15 -5 15 -11 0 -5 10 -9 23 -7 20 3 22 9 27 93 l5 90 33 3 c18 2 43 14 57
28 13 13 32 24 42 24 32 0 63 -29 63 -58 0 -33 -8 -45 -37 -61 -25 -13 -60 -1
-76 25 -4 8 -19 14 -32 14 -24 0 -25 -3 -25 -68 l0 -68 78 -11 c95 -13 105
-15 114 -28 4 -5 8 0 8 11 0 25 22 36 54 28 16 -4 32 3 53 20 17 14 39 26 50
26 31 0 63 -29 63 -57 0 -58 -63 -83 -106 -42 -15 14 -32 19 -55 17 l-34 -3
43 -39 c97 -90 151 -216 137 -323 -5 -42 -4 -53 8 -53 22 0 60 -47 60 -75 0
-14 -9 -35 -18 -45 -22 -24 -77 -27 -95 -5 -17 20 -27 19 -35 -4 -6 -19 -33
-36 -43 -26 -3 3 0 16 6 30 11 24 10 25 -23 25 -28 0 -42 -8 -70 -39 -34 -37
-110 -77 -164 -84 -14 -2 -27 -9 -29 -15 -3 -9 28 -12 109 -12 109 0 114 1
141 27 51 49 128 23 128 -44 0 -31 -42 -73 -73 -73 -23 0 -67 33 -67 50 0 6
-55 10 -135 10 l-135 0 0 25 c0 20 -6 25 -37 31 -50 9 -143 52 -150 70 -11 30
-23 -1 -23 -62 l0 -64 -105 0 c-98 0 -106 -2 -129 -25 -30 -30 -55 -32 -84 -5
-30 28 -28 64 5 89 29 24 58 20 85 -10 14 -16 30 -19 107 -19 l91 0 0 73 c0
61 -5 83 -32 140 l-32 67 -68 0 -68 0 0 -60 0 -60 -66 0 c-60 0 -68 -3 -94
-30 -33 -35 -71 -39 -100 -10 -41 41 -12 120 45 120 14 0 37 -11 51 -25 20
-21 35 -25 79 -25 l55 0 0 60 0 60 85 0 85 0 0 30 c0 28 -3 30 -35 30 -24 0
-35 5 -35 15 0 10 11 15 35 15 32 0 35 2 35 30 0 28 -3 30 -35 30 -24 0 -35 5
-35 15 0 10 11 15 35 15 32 0 35 2 35 30 l0 30 -85 0 -85 0 0 60 0 60 -33 0
c-20 0 -39 -8 -50 -21 -26 -29 -77 -23 -97 13 -13 25 -13 30 2 55 23 39 69 43
99 9 12 -14 26 -23 31 -20 5 3 25 3 44 0 l34 -7 0 -59 0 -60 69 0 c61 0 70 3
76 20 3 11 17 23 31 26 23 6 24 8 24 110 l0 104 -47 0 c-38 0 -51 -5 -68 -24
-46 -54 -125 -30 -125 38 0 74 68 100 122 46z m-792 -841 c0 -766 -1 -810 -17
-807 -17 3 -18 50 -21 798 -1 437 0 801 3 808 2 6 11 12 20 12 13 0 15 -89 15
-811z m-2394 762 c23 -10 45 -24 48 -30 5 -7 53 -11 138 -10 121 0 133 2 167
25 46 30 116 40 166 24 78 -26 144 -113 145 -191 0 -21 -13 -61 -30 -95 -16
-32 -30 -64 -30 -70 0 -6 13 -17 30 -24 16 -7 35 -18 41 -26 24 -29 30 -13 7
19 -35 46 -38 60 -18 86 20 28 37 13 20 -18 -8 -16 -5 -26 16 -50 14 -17 25
-38 24 -48 -2 -46 -1 -72 5 -118 4 -29 2 -68 -4 -93 -14 -49 -63 -110 -97
-118 -31 -8 -30 -20 7 -90 20 -39 70 -99 145 -175 91 -92 114 -122 114 -144 0
-22 -23 -51 -109 -139 l-109 -111 -4 -79 c-5 -114 -9 -116 -204 -116 -209 0
-214 3 -214 130 l0 65 -110 110 c-125 125 -131 140 -77 201 21 25 25 34 12 27
-43 -25 -104 42 -85 93 10 26 39 29 31 3 -8 -26 -3 -58 11 -73 12 -12 20 -12
39 -2 44 21 36 53 -26 116 -31 32 -53 60 -48 63 5 3 38 -24 74 -60 35 -36 57
-62 49 -57 -13 7 -13 5 -2 -9 8 -9 10 -22 6 -29 -4 -7 9 3 30 22 27 26 33 36
23 42 -8 4 -26 24 -42 43 -19 26 -25 43 -21 61 9 35 37 32 30 -3 -4 -22 1 -35
27 -61 l32 -33 34 33 c41 39 41 49 4 66 -56 25 -56 111 0 125 32 9 39 1 39
-44 0 -47 -22 -50 -30 -4 -4 25 -6 26 -19 12 -18 -23 -7 -61 23 -75 21 -9 26
-8 40 13 13 20 16 62 16 259 l0 235 -125 -1 c-104 0 -129 -3 -148 -18 -12 -10
-43 -23 -67 -30 -39 -11 -78 -46 -301 -268 -255 -253 -257 -255 -263 -305 -14
-98 -83 -182 -171 -207 -41 -12 -45 -15 -45 -44 0 -22 -9 -40 -27 -58 -39 -35
-141 -91 -153 -83 -14 8 -14 811 0 820 11 7 122 -55 158 -88 14 -13 22 -32 22
-54 0 -18 3 -33 8 -33 4 0 38 30 74 68 52 51 65 70 58 82 -5 8 -10 38 -10 66
0 122 139 234 251 204 l42 -12 53 53 c30 30 54 62 54 73 0 34 41 106 75 132
61 47 134 56 201 25z m-5118 -146 l39 -34 379 -3 c338 -3 383 -5 413 -20 41
-22 41 -22 41 -4 0 21 21 31 31 15 5 -8 6 -22 3 -31 -4 -15 1 -18 25 -18 28 0
31 3 31 30 0 20 5 30 15 30 13 0 21 -25 16 -52 0 -5 13 -8 29 -8 27 0 30 3 30
30 0 20 5 30 15 30 10 0 15 -10 15 -29 0 -23 5 -30 23 -33 13 -2 28 -16 37
-33 11 -21 22 -30 40 -30 16 0 26 -6 28 -17 3 -14 -3 -18 -27 -18 -26 0 -31
-4 -31 -24 0 -19 6 -25 28 -28 16 -2 27 -9 27 -18 0 -9 -11 -16 -27 -18 -22
-3 -28 -9 -28 -26 0 -21 7 -24 78 -36 42 -7 93 -21 114 -31 45 -23 95 -83 108
-129 16 -59 13 -488 -5 -546 -16 -56 -52 -96 -107 -119 l-38 -15 0 -103 c0
-77 -4 -108 -16 -125 -29 -41 -33 -39 -233 136 l-104 91 -271 3 c-240 3 -275
5 -308 21 -81 41 -119 100 -127 200 l-6 68 -128 -110 c-70 -61 -133 -111 -138
-111 -6 0 -19 5 -30 10 -17 10 -19 22 -19 123 l0 112 -52 20 c-39 15 -60 31
-83 63 l-30 44 -3 226 c-5 268 5 346 49 388 26 25 28 29 13 45 -11 12 -12 19
-4 24 7 4 16 2 20 -5 6 -10 16 -7 40 13 32 28 57 36 44 15 -5 -8 2 -9 26 -5
18 4 39 7 47 7 9 0 5 9 -12 27 -23 26 -32 43 -20 43 3 0 22 -16 43 -35z
m-2603 -273 c-58 -95 -79 -170 -79 -292 0 -76 5 -120 18 -160 22 -66 71 -166
86 -175 15 -9 12 -35 -4 -35 -16 0 -58 59 -85 121 -70 157 -68 357 5 502 38
75 74 121 86 109 7 -7 -2 -30 -27 -70z m1683 51 c31 -44 78 -144 93 -198 15
-56 18 -178 6 -270 l-8 -60 41 -43 c22 -24 40 -52 40 -63 0 -21 -45 -69 -64
-69 -13 0 -58 29 -68 44 -8 12 -35 -9 -43 -35 -8 -25 -35 -24 -35 1 0 11 4 20
9 20 4 0 22 28 39 63 37 74 49 113 33 103 -6 -4 -11 -1 -11 8 0 10 6 13 15 10
8 -4 15 -4 15 -1 0 3 5 39 10 79 8 56 7 92 -4 156 -14 80 -66 211 -92 233 -16
13 -19 49 -5 49 5 0 18 -12 29 -27z m7800 -607 c-3 -517 -5 -591 -18 -591 -13
0 -15 73 -18 585 -1 322 0 591 3 597 2 7 11 10 20 7 13 -6 15 -72 13 -598z
m312 -2 c0 -521 -2 -594 -15 -594 -13 0 -15 73 -15 593 0 327 3 597 6 600 4 4
11 4 15 1 5 -3 9 -273 9 -600z m-9580 491 c0 -3 -12 -23 -26 -45 -28 -43 -54
-132 -54 -191 0 -49 25 -129 55 -173 24 -35 26 -56 5 -56 -16 0 -58 75 -76
136 -25 86 -16 186 25 269 23 47 38 65 52 65 10 0 19 -2 19 -5z m1317 -63 c38
-75 50 -153 34 -229 -18 -92 -78 -193 -96 -163 -4 7 1 24 12 38 71 98 75 268
8 366 -29 43 -32 59 -7 54 9 -2 31 -31 49 -66z m4731 -460 l2 -262 -540 0
c-473 0 -540 2 -540 15 0 13 56 15 438 16 240 1 474 1 520 0 l82 -1 0 234 c0
236 3 270 24 263 8 -3 12 -82 14 -265z m-1445 -357 c45 -7 114 -65 134 -112 7
-18 13 -55 13 -83 0 -112 -88 -200 -200 -200 -185 0 -268 224 -132 353 30 29
105 58 132 52 8 -2 32 -6 53 -10z m2909 -112 c16 -14 18 -36 18 -182 -1 -132
-4 -170 -16 -186 -14 -18 -29 -20 -179 -23 -164 -3 -165 -3 -190 22 -25 25
-25 28 -25 183 0 171 7 198 53 205 12 2 89 2 172 0 120 -2 153 -6 167 -19z
m-608 -2 c15 -17 18 -41 17 -186 -1 -218 12 -205 -203 -205 -155 0 -159 1
-183 25 -24 24 -25 28 -25 183 0 214 -13 202 209 202 153 0 169 -2 185 -19z
m-854 -25 c0 -8 -7 -17 -16 -20 -28 -11 -1052 -7 -1059 4 -3 6 -3 15 0 20 4 6
195 10 541 10 450 0 534 -2 534 -14z m-5 -266 c0 -13 -67 -15 -529 -18 -314
-1 -534 2 -539 7 -29 29 12 31 536 29 465 -3 532 -5 532 -18z"/>
<path d="M10392 12389 c-54 -21 -113 -74 -137 -123 -29 -58 -34 -155 -11 -211
10 -24 11 -35 4 -35 -6 0 -9 -3 -6 -6 11 -11 138 -16 138 -6 0 6 -9 13 -19 17
-29 9 -55 85 -48 141 6 55 47 111 101 138 122 60 251 0 302 -141 18 -51 18
-118 -1 -137 -13 -13 -13 -15 5 -21 51 -16 70 17 70 122 0 105 -78 215 -181
254 -53 21 -176 25 -217 8z"/>
<path d="M10424 12206 c-36 -36 -44 -78 -24 -130 22 -59 108 -55 95 3 -4 20
-1 34 10 45 20 20 29 20 49 0 27 -26 16 -89 -16 -100 -30 -9 -3 -24 42 -23 33
0 89 17 64 18 -8 1 -9 12 -4 36 22 98 -43 185 -138 185 -37 0 -50 -6 -78 -34z"/>
<path d="M7139 11785 c-52 -27 -77 -66 -53 -85 8 -7 14 -19 14 -28 0 -13 -3
-12 -20 3 -19 18 -20 17 -20 -6 -1 -13 -2 -234 -3 -492 l-2 -467 953 2 952 3
0 494 c0 484 0 494 -21 527 -45 73 8 69 -890 72 l-805 2 -24 -25 c-23 -25 -64
-33 -75 -16 -7 12 31 25 46 15 7 -4 9 -3 5 4 -3 5 0 13 6 15 9 4 8 6 -2 6 -8
0 -35 -11 -61 -24z m385 -86 c34 -27 35 -71 1 -105 -21 -20 -25 -35 -25 -79
l0 -55 135 0 135 0 0 56 c0 48 -4 59 -25 76 -32 25 -34 79 -5 108 54 54 146
-23 104 -87 -8 -13 -22 -27 -30 -30 -10 -4 -14 -22 -14 -64 l0 -59 39 0 c44 0
91 -36 91 -70 0 -15 6 -20 25 -20 28 0 74 -42 76 -69 4 -55 -25 -98 -70 -103
-23 -3 -27 -9 -32 -47 -7 -56 -28 -71 -97 -71 l-53 0 3 -32 c3 -32 4 -33 46
-30 27 2 52 -2 68 -12 22 -15 24 -23 24 -87 0 -52 -3 -70 -12 -67 -8 3 -14 28
-16 66 l-3 62 -244 0 -244 0 -3 -62 c-2 -38 -8 -63 -15 -66 -10 -3 -13 15 -13
67 0 63 2 72 24 86 13 9 28 15 32 14 5 -1 28 -1 52 0 40 1 42 3 42 31 0 30 0
30 -58 30 -73 0 -101 21 -109 79 -5 34 -9 41 -28 41 -31 0 -64 32 -71 68 -8
40 25 88 66 97 21 5 32 14 36 31 8 33 50 64 85 64 29 0 29 1 29 60 0 41 -4 60
-12 60 -7 0 -21 12 -31 26 -23 31 -15 77 16 99 29 20 49 19 81 -6z m1099 -24
c-2 -5 -28 -11 -58 -13 -53 -3 -55 -4 -55 -32 0 -24 5 -29 28 -32 16 -2 27 -9
27 -18 0 -10 -9 -14 -27 -13 -26 2 -28 -1 -28 -33 l0 -34 55 0 c42 0 55 -3 55
-15 0 -12 -14 -15 -70 -15 l-70 0 0 109 c0 124 -4 119 89 111 31 -3 55 -9 54
-15z m107 -400 l0 -105 -182 2 -183 3 -3 103 -3 102 186 0 185 0 0 -105z m75
-185 c0 -12 -22 -15 -126 -18 l-125 -3 -1 -34 -1 -34 101 -3 c87 -3 102 -6
105 -20 3 -15 -9 -18 -100 -20 l-103 -3 -1 -40 c0 -27 5 -42 15 -47 9 -4 69
-7 134 -7 93 -1 117 -4 117 -15 0 -10 -20 -16 -66 -21 -133 -14 -267 19 -330
81 -20 21 -34 29 -34 20 0 -8 -19 -36 -43 -62 -33 -36 -48 -46 -62 -40 -16 6
-14 10 17 39 41 37 63 77 72 130 8 42 29 46 34 6 5 -32 42 -80 81 -102 l31
-18 0 95 0 96 -119 0 c-113 0 -141 6 -126 29 3 6 116 9 268 8 225 -2 262 -4
262 -17z"/>
<path d="M7409 11412 c-17 -12 -19 -26 -19 -147 0 -123 2 -135 19 -145 31 -16
452 -13 474 4 15 11 17 31 17 143 0 109 -3 133 -16 144 -24 20 -447 21 -475 1z
m178 -78 c20 -20 24 -31 19 -57 -8 -39 -30 -57 -70 -57 -65 0 -92 78 -40 119
35 28 59 26 91 -5z m207 5 c50 -40 21 -119 -44 -119 -65 0 -94 79 -44 119 15
12 34 21 44 21 10 0 29 -9 44 -21z"/>
<path d="M8390 11336 c0 -45 5 -46 161 -46 l149 0 0 30 0 30 -155 0 c-127 0
-155 -3 -155 -14z"/>
<path d="M8392 11233 l3 -28 153 -2 152 -3 0 30 0 30 -156 0 -155 0 3 -27z"/>
<path d="M7060 10673 c0 -19 59 -78 94 -94 39 -17 89 -18 845 -19 515 0 816 3
841 10 46 12 86 43 105 81 l16 29 -951 0 c-522 0 -950 -3 -950 -7z"/>
<path d="M7809 10523 c0 -5 -1 -42 -2 -83 l-1 -75 202 0 203 0 2 83 2 82 -202
0 c-112 0 -203 -3 -204 -7z"/>
<path d="M7614 10312 c-27 -21 -47 -59 -39 -72 4 -6 175 -9 435 -10 l430 0 0
23 c-1 26 -17 50 -47 65 -15 9 -129 12 -390 12 -334 0 -370 -2 -389 -18z"/>
<path d="M12115 11721 c-105 -37 -171 -88 -225 -173 -169 -261 -15 -608 291
-657 35 -6 106 -11 157 -11 80 0 100 4 144 26 87 44 161 54 416 54 l234 0 51
53 c96 99 143 242 119 369 -26 141 -113 256 -237 314 -38 18 -85 35 -103 39
l-33 7 45 -44 c58 -55 67 -88 32 -122 -33 -34 -51 -33 -92 8 -31 31 -33 36
-23 65 6 17 14 31 18 31 16 0 20 -14 10 -26 -28 -34 15 -83 61 -69 35 11 25
55 -26 108 l-45 47 -372 0 c-334 -1 -377 -3 -422 -19z m38 -317 c191 -110 182
-103 165 -120 -28 -28 -292 -175 -305 -170 -10 4 -13 44 -13 179 0 155 3 187
17 187 3 0 64 -34 136 -76z"/>
<path d="M12038 11291 c-2 -72 -2 -131 -1 -131 2 0 55 30 118 66 l116 66 -103
60 c-57 33 -108 62 -115 65 -9 3 -13 -30 -15 -126z"/>
<path d="M12581 10904 c-211 -57 -350 -268 -314 -478 30 -173 145 -302 315
-351 49 -14 109 -16 450 -13 l393 3 68 32 c95 45 175 125 218 216 32 67 34 79
34 177 0 97 -2 110 -32 173 -58 122 -161 208 -288 242 -84 21 -763 21 -844 -1z
m479 -164 c29 -29 29 -149 0 -175 -30 -27 -88 -25 -111 4 -33 40 -23 158 15
183 22 15 76 8 96 -12z m0 -300 c15 -15 20 -33 20 -79 0 -74 -5 -88 -40 -106
-33 -17 -84 -4 -100 25 -23 43 -8 151 24 172 22 15 76 8 96 -12z m247 -2 c19
-18 23 -32 23 -84 0 -79 -20 -108 -75 -108 -53 0 -75 30 -75 101 0 53 12 91
34 105 22 15 70 8 93 -14z m248 -3 c21 -20 25 -34 25 -85 0 -51 -4 -65 -25
-85 -30 -30 -64 -32 -99 -4 -24 19 -26 27 -26 90 0 56 4 73 20 89 28 28 75 26
105 -5z"/>
<path d="M3503 11604 c-19 -21 -22 -33 -17 -66 7 -39 8 -40 40 -35 35 6 64
-15 64 -47 0 -9 10 -21 23 -25 18 -7 26 -4 45 20 30 37 46 37 110 -6 56 -38
61 -51 35 -93 -16 -23 -12 -22 33 13 160 124 311 251 307 258 -2 4 -142 7
-311 7 l-307 0 -22 -26z"/>
<path d="M3125 11466 c-140 -71 -254 -135 -252 -140 3 -10 417 -119 425 -112
2 2 -10 12 -27 22 -39 23 -39 43 1 104 39 59 50 65 89 45 43 -23 71 -6 59 36
-8 26 -5 35 16 56 35 35 25 82 -21 104 l-34 16 -256 -131z"/>
<path d="M4000 11454 c-91 -74 -172 -142 -180 -150 -13 -13 -12 -14 10 -6 60
20 75 4 94 -100 8 -42 -11 -68 -49 -68 -16 0 -24 -7 -28 -25 -3 -21 1 -29 24
-41 38 -19 37 -47 -1 -107 -36 -57 -49 -63 -90 -42 -42 22 -64 6 -55 -41 6
-37 -13 -64 -47 -64 -12 0 -18 -5 -16 -12 3 -7 18 -70 34 -140 26 -114 31
-128 53 -133 13 -3 24 -5 25 -3 1 2 42 109 90 238 48 129 96 258 107 285 95
247 199 531 197 536 -2 4 -77 -53 -168 -127z"/>
<path d="M4323 11453 c60 -132 64 -138 97 -144 19 -4 44 -19 56 -32 20 -23 25
-24 75 -16 88 15 99 19 99 32 -1 11 -355 287 -379 295 -5 2 18 -59 52 -135z"/>
<path d="M3482 11459 c-32 -10 -33 -12 -27 -47 5 -34 3 -40 -24 -60 -35 -26
-49 -27 -75 -7 -28 21 -32 20 -59 -30 l-25 -45 29 -17 c50 -29 36 -105 -21
-116 -33 -7 -35 -14 -19 -70 10 -38 10 -38 52 -32 41 6 42 5 61 -34 17 -36 17
-41 2 -62 -22 -32 -22 -33 25 -64 l41 -27 27 31 c23 28 30 30 63 25 31 -6 39
-12 49 -41 11 -34 13 -35 48 -29 20 3 42 6 50 6 10 0 12 10 8 40 -5 42 4 59
44 80 14 8 27 6 48 -5 17 -8 32 -15 34 -15 2 0 17 18 33 41 l28 41 -24 19
c-14 10 -29 19 -33 19 -12 0 3 83 17 92 6 4 21 8 34 8 24 0 26 9 15 73 -6 38
-6 38 -43 32 -33 -6 -40 -3 -64 25 -30 36 -30 38 -11 64 23 30 19 40 -27 70
-32 21 -43 24 -49 14 -27 -46 -35 -50 -77 -43 -36 6 -43 11 -50 38 -9 36 -27
41 -80 26z m181 -174 c47 -32 67 -71 67 -130 0 -108 -90 -180 -197 -160 -27 5
-51 21 -82 52 l-43 46 4 65 c4 63 6 67 52 109 45 40 52 43 105 43 44 0 65 -6
94 -25z"/>
<path d="M3530 11273 c-39 -15 -70 -47 -81 -83 -10 -33 -9 -47 6 -86 14 -37
25 -50 59 -65 52 -24 68 -24 116 1 70 35 91 116 47 181 -34 51 -93 72 -147 52z"/>
<path d="M2968 11178 c115 -111 275 -264 302 -288 9 -8 86 -81 171 -162 85
-80 171 -162 192 -182 40 -38 57 -45 57 -23 0 6 -14 72 -31 144 -30 127 -32
133 -54 127 -25 -6 -55 25 -55 57 0 22 -42 33 -53 14 -14 -25 -38 -45 -55 -45
-25 0 -117 63 -117 80 -1 8 5 25 13 37 8 13 11 31 7 44 -6 18 -12 20 -46 15
-45 -7 -59 8 -78 87 -13 55 -10 64 32 82 l31 13 -39 11 c-111 29 -365 91 -374
91 -5 0 39 -46 97 -102z"/>
<path d="M2810 11096 c0 -127 3 -156 14 -156 8 0 24 -8 37 -19 18 -14 23 -28
22 -58 -2 -38 1 -41 69 -89 38 -27 101 -73 140 -102 64 -49 71 -52 87 -38 29
26 86 20 110 -10 12 -15 21 -36 21 -48 0 -19 18 -26 171 -67 93 -25 172 -42
174 -39 3 4 -21 32 -53 61 -32 30 -129 122 -216 204 -88 83 -165 149 -171 149
-7 -1 -12 4 -11 10 2 16 -352 350 -375 354 -18 3 -19 -4 -19 -152z"/>
<path d="M4801 10803 c-27 -38 -109 -144 -180 -238 -161 -208 -194 -255 -184
-255 5 0 44 14 88 30 267 102 265 101 265 122 0 11 15 35 34 53 l34 32 4 161
c2 89 1 162 -3 162 -4 0 -30 -30 -58 -67z"/>
<path d="M4207 11053 c-26 -4 -28 -7 -23 -36 6 -36 2 -46 -33 -70 -22 -14 -27
-14 -53 -1 -34 17 -43 13 -64 -28 -15 -30 -15 -31 11 -52 24 -19 26 -26 20
-59 -6 -32 -12 -39 -36 -44 -38 -7 -40 -11 -27 -60 10 -40 11 -41 46 -36 33 4
39 1 55 -26 16 -28 17 -33 2 -60 -15 -30 -15 -30 22 -56 36 -24 39 -24 50 -8
25 36 35 44 50 39 8 -3 23 -6 33 -6 12 0 22 -12 30 -36 11 -33 15 -36 42 -30
17 3 37 6 45 6 12 0 13 8 8 39 -6 35 -4 41 24 60 28 20 32 21 60 6 17 -8 32
-15 35 -15 2 0 14 17 26 37 19 32 19 38 6 45 -35 20 -45 37 -36 68 12 43 19
50 46 50 26 0 29 12 18 67 -5 27 -9 30 -45 29 -33 -1 -43 4 -57 27 -16 26 -16
30 0 57 l16 29 -37 24 -38 25 -25 -28 c-21 -24 -29 -27 -59 -21 -27 5 -35 13
-43 39 -9 32 -12 33 -69 25z m137 -147 c144 -60 94 -276 -64 -276 -58 0 -103
28 -130 79 -60 119 68 250 194 197z"/>
<path d="M4234 10866 c-21 -9 -36 -27 -47 -54 -32 -81 19 -152 110 -152 36 0
93 60 93 98 0 43 -17 86 -41 100 -17 11 -20 11 -13 0 4 -7 -2 -5 -13 5 -23 20
-47 21 -89 3z"/>
<path d="M9796 10882 c-42 -5 -100 -45 -125 -86 -13 -20 -25 -60 -28 -91 l-6
-55 907 0 906 0 0 51 c0 56 -15 92 -57 131 -62 59 -47 58 -841 56 -400 -1
-740 -4 -756 -6z"/>
<path d="M9640 10070 l0 -550 503 1 c313 0 493 4 479 9 -25 10 -42 46 -34 70
10 29 46 60 69 60 26 0 73 -41 73 -62 0 -7 -6 -4 -12 7 -26 46 -77 49 -108 5
-12 -16 -17 -30 -11 -30 6 0 11 -6 11 -14 0 -7 11 -21 25 -30 21 -14 73 -16
420 -16 l395 0 0 550 0 550 -905 0 -905 0 0 -550z m515 485 c33 -9 80 -29 105
-45 42 -28 45 -28 65 -12 20 17 20 17 2 -4 -16 -20 -16 -22 3 -39 11 -10 30
-34 41 -52 l21 -34 217 1 c619 2 615 2 652 -23 73 -49 102 -145 65 -215 -21
-41 -68 -81 -107 -92 -19 -6 -201 -10 -429 -10 l-395 0 -48 -55 -48 -55 22
-29 c18 -25 25 -28 40 -18 28 18 52 -1 128 -98 87 -110 89 -129 25 -175 -37
-27 -50 -31 -68 -22 -25 11 -166 192 -166 212 0 8 9 23 19 34 19 21 19 21 -4
48 l-24 28 -58 -28 c-51 -23 -70 -27 -153 -27 -81 0 -103 4 -152 27 -79 37
-142 98 -181 177 -29 59 -32 74 -32 156 0 76 4 99 26 145 48 102 121 167 229
201 69 22 129 23 205 4z"/>
<path d="M9949 10516 c-139 -53 -223 -171 -223 -313 0 -62 4 -80 35 -140 22
-43 41 -68 51 -67 8 1 15 -6 14 -15 -1 -20 84 -78 137 -92 65 -17 194 -7 245
20 203 105 249 351 97 519 -57 63 -132 95 -235 99 -55 2 -98 -2 -121 -11z
m235 -95 c19 -12 41 -19 47 -15 8 4 9 3 5 -5 -4 -7 5 -26 22 -45 40 -46 55
-96 50 -171 -8 -128 -98 -216 -230 -223 -85 -5 -138 13 -192 65 -52 51 -76
105 -76 176 0 101 49 177 145 224 65 31 172 29 229 -6z"/>
<path d="M10000 10408 c-113 -32 -180 -148 -150 -258 16 -61 89 -134 150 -150
142 -38 274 60 274 205 1 101 -64 181 -165 204 -52 12 -63 12 -109 -1z m45
-99 c30 -17 60 -27 66 -23 7 4 9 3 5 -4 -3 -6 17 -24 49 -42 31 -18 54 -37 52
-44 -5 -16 -237 -147 -248 -140 -5 3 -9 68 -9 145 0 160 -2 157 85 108z"/>
<path d="M10000 10196 l0 -95 80 47 c44 26 80 49 80 52 0 3 -36 24 -80 48
l-80 43 0 -95z"/>
<path d="M10416 10313 c11 -35 12 -179 1 -215 l-7 -28 396 0 c386 0 397 1 434
21 71 40 89 130 38 194 -42 54 -54 55 -479 55 l-391 0 8 -27z"/>
<path d="M10352 9823 c-21 -16 -31 -31 -28 -40 10 -25 130 -173 141 -173 6 1
23 11 39 25 22 17 27 27 19 37 -25 32 -136 173 -137 175 -1 1 -16 -10 -34 -24z"/>
<path d="M9511 9451 c5 -15 24 -41 40 -57 l30 -29 542 -2 c298 -1 553 -3 567
-4 49 -2 52 -1 35 24 -8 13 -12 27 -9 30 9 9 45 -33 38 -44 -3 -5 156 -9 361
-9 311 0 371 2 396 15 30 16 69 68 69 93 0 9 -88 12 -406 12 l-406 0 31 -26
c32 -27 40 -44 19 -44 -13 0 -58 48 -58 62 0 4 -283 8 -629 8 l-630 0 10 -29z"/>
<path d="M6232 10669 c-94 -11 -237 -59 -321 -108 -84 -49 -198 -155 -257
-236 -162 -228 -199 -531 -95 -790 63 -157 179 -299 316 -388 156 -100 267
-132 460 -132 162 1 222 13 359 78 l89 42 -5 187 c-3 104 -8 191 -11 194 -3 4
-28 1 -54 -6 -82 -21 -242 -25 -285 -7 -47 20 -72 59 -73 113 0 30 -7 49 -23
67 -29 31 -21 49 35 78 l45 23 -56 24 c-63 27 -71 49 -35 88 28 30 17 44 -37
44 -34 0 -51 6 -69 25 -43 42 -34 72 51 180 l76 96 -16 89 c-20 109 -20 189
-2 261 8 31 16 62 18 70 4 17 -18 19 -110 8z m-242 -615 c0 -8 -11 -30 -25
-48 -13 -17 -37 -59 -52 -92 -24 -52 -27 -71 -28 -159 0 -93 2 -105 32 -166
18 -37 56 -90 83 -118 47 -48 55 -71 28 -71 -23 0 -110 107 -144 175 -60 121
-56 253 10 383 42 83 96 137 96 96z m90 -66 c0 -7 -14 -33 -30 -57 -35 -51
-60 -128 -60 -182 0 -59 37 -143 87 -199 34 -38 43 -54 34 -63 -8 -8 -21 -1
-52 28 -125 122 -136 308 -26 457 21 29 47 37 47 16z"/>
<path d="M6367 10613 c-31 -116 -30 -158 8 -348 6 -26 -3 -42 -68 -125 -40
-52 -76 -102 -80 -112 -10 -29 15 -48 78 -56 l60 -7 3 -39 c2 -28 -1 -42 -12
-48 -27 -15 -18 -24 49 -53 36 -15 65 -32 65 -39 0 -6 -25 -24 -55 -41 -30
-16 -55 -32 -55 -36 0 -3 9 -14 20 -24 16 -14 19 -26 14 -56 -17 -106 87 -132
324 -80 45 10 85 15 87 11 2 -4 5 -93 5 -199 1 -105 4 -191 8 -191 17 0 135
116 180 177 114 155 165 309 165 493 -1 407 -241 705 -655 810 -119 31 -123
30 -141 -37z"/>
<path d="M12858 9215 c-64 -36 -76 -116 -25 -171 27 -30 39 -35 76 -36 104 -1
152 116 78 190 -30 30 -92 38 -129 17z"/>
<path d="M12685 8966 c-61 -35 -168 -97 -240 -138 l-130 -75 -2 -64 -2 -64
107 -60 107 -61 65 66 c74 74 146 113 246 132 l65 13 -3 129 -3 130 -29 7
c-16 5 -38 17 -50 28 l-22 20 -109 -63z"/>
<path d="M13024 9018 c-4 -6 -26 -19 -50 -30 l-44 -19 0 -128 0 -128 53 -7
c99 -13 230 -93 292 -179 l20 -27 109 64 110 64 0 61 0 62 -70 40 c-38 23 -94
54 -125 70 -31 15 -76 41 -100 57 -90 60 -189 111 -195 100z"/>
<path d="M12111 8786 c-69 -38 -67 -162 4 -194 51 -23 95 -15 131 24 48 50 48
102 0 150 -27 27 -42 34 -72 34 -22 -1 -50 -7 -63 -14z"/>
<path d="M13594 8781 c-60 -37 -67 -125 -12 -173 45 -39 118 -35 159 8 19 20
24 37 24 76 0 43 -4 53 -33 79 -39 35 -91 39 -138 10z"/>
<path d="M12830 8670 c-76 -16 -163 -66 -219 -125 -124 -131 -151 -309 -71
-471 165 -335 650 -301 769 54 71 209 -48 451 -255 522 -69 24 -164 32 -224
20z m138 -106 c17 -5 22 -14 22 -39 0 -45 32 -56 66 -24 l25 23 51 -52 52 -51
-25 -28 c-35 -38 -28 -61 19 -65 l37 -3 3 -63 c3 -73 -6 -90 -46 -84 -39 5
-50 -23 -22 -53 28 -30 25 -47 -12 -80 -75 -64 -66 -61 -92 -36 -25 24 -63 25
-58 1 2 -8 1 -24 -3 -37 -5 -23 -9 -24 -78 -21 l-72 3 -3 37 c-4 44 -22 53
-55 27 -14 -10 -29 -19 -33 -19 -16 0 -94 85 -94 102 0 10 3 18 8 18 13 0 32
39 26 54 -3 8 -13 13 -22 11 -9 -1 -27 1 -38 5 -18 7 -22 17 -22 62 0 68 11
88 49 88 39 0 48 24 20 54 -11 12 -21 27 -21 33 0 13 86 93 101 93 6 0 22 -9
36 -19 32 -26 53 -17 53 23 0 18 3 36 7 39 8 9 90 9 121 1z"/>
<path d="M12868 8499 c-2 -24 -10 -34 -35 -44 -29 -12 -35 -12 -58 7 l-26 20
-30 -28 -29 -28 21 -22 c19 -20 20 -26 9 -58 -10 -32 -15 -36 -46 -36 -34 0
-34 0 -34 -45 0 -40 3 -45 23 -45 29 0 40 -9 55 -44 11 -26 11 -31 -9 -52
l-21 -22 23 -31 c27 -36 35 -38 63 -12 19 18 24 18 54 6 28 -12 32 -19 32 -50
l0 -36 48 3 c43 3 47 5 44 26 -4 30 12 49 51 58 25 5 34 2 49 -17 l19 -22 21
21 c22 21 22 21 2 44 l-19 23 23 -19 c31 -27 38 -14 12 22 -22 30 -22 31 -4
61 15 25 25 31 51 31 32 0 33 1 33 45 0 45 0 45 -34 45 -31 0 -36 4 -46 36
-11 31 -10 38 8 57 l21 22 -30 34 -29 34 -25 -23 c-24 -23 -26 -23 -60 -7 -29
14 -35 22 -35 47 0 29 -2 30 -44 30 -43 0 -45 -1 -48 -31z m127 -152 c41 -41
52 -79 36 -122 -6 -18 -9 -41 -5 -51 4 -14 4 -16 -4 -5 -8 11 -14 10 -32 -7
-66 -61 -182 -19 -197 71 -8 51 3 86 39 119 25 23 39 28 80 28 43 0 54 -4 83
-33z"/>
<path d="M12850 8322 c-61 -61 -24 -151 63 -152 111 -1 118 162 8 177 -35 5
-44 2 -71 -25z"/>
<path d="M12274 8589 c-3 -6 -24 -19 -46 -29 l-40 -17 0 -284 0 -283 41 -19
c23 -11 41 -23 41 -28 0 -19 33 -7 127 48 54 31 101 59 105 62 4 4 -2 31 -13
61 -39 101 -32 254 15 360 5 12 -20 30 -104 78 -61 34 -112 62 -115 62 -2 0
-7 -5 -11 -11z"/>
<path d="M13451 8551 c-46 -28 -97 -55 -113 -62 -21 -8 -27 -16 -22 -28 51
-123 59 -233 24 -343 -11 -34 -20 -66 -20 -70 0 -7 146 -98 158 -98 4 0 18 -9
32 -19 24 -19 24 -19 53 5 16 13 39 27 53 30 l24 6 0 288 0 288 -27 5 c-16 3
-38 15 -50 26 -12 12 -23 21 -25 21 -2 0 -41 -22 -87 -49z"/>
<path d="M12410 7945 c-64 -39 -103 -69 -101 -77 2 -7 3 -32 3 -54 -2 -48 0
-50 94 -102 38 -22 96 -55 129 -74 33 -19 104 -61 158 -92 l99 -58 23 22 c12
11 35 24 51 29 l29 7 3 131 3 130 -56 6 c-77 8 -188 64 -252 128 -29 29 -53
56 -53 60 0 19 -29 6 -130 -56z"/>
<path d="M13256 7964 c-66 -79 -208 -154 -293 -154 l-33 0 0 -130 0 -130 28
-12 c15 -7 37 -20 49 -31 21 -19 22 -19 105 28 46 25 154 88 241 138 l159 93
1 62 2 62 -106 60 c-59 33 -108 60 -111 60 -2 0 -21 -21 -42 -46z"/>
<path d="M12124 7930 c-57 -23 -84 -117 -48 -168 61 -87 204 -45 204 61 0 49
-12 70 -54 96 -35 22 -67 25 -102 11z"/>
<path d="M13615 7930 c-26 -10 -61 -49 -70 -78 -9 -31 10 -84 41 -113 38 -36
103 -33 143 5 16 16 33 42 36 57 19 85 -71 162 -150 129z"/>
<path d="M12839 7482 c-23 -21 -32 -38 -36 -72 -4 -39 -1 -50 24 -78 61 -71
181 -44 194 44 2 10 0 36 -4 56 -16 77 -116 105 -178 50z"/>
<path d="M2794 9596 l-34 -34 0 -141 0 -140 -51 -111 c-28 -61 -49 -113 -47
-115 2 -2 32 9 68 25 l65 29 343 1 344 0 34 34 34 34 0 186 c0 122 -4 194 -12
211 -24 53 -40 55 -389 55 l-321 0 -34 -34z m210 -182 c61 -61 -14 -158 -82
-107 -35 26 -41 74 -13 102 25 25 73 27 95 5z m194 0 c15 -10 22 -25 22 -47 0
-38 -7 -50 -38 -66 -47 -25 -113 28 -95 76 18 52 67 68 111 37z m203 -5 c28
-28 22 -76 -13 -102 -68 -51 -143 46 -82 107 22 22 70 20 95 -5z"/>
<path d="M7446 9409 c-69 -11 -135 -55 -171 -114 -27 -44 -30 -56 -30 -134 0
-103 21 -150 87 -202 40 -32 46 -34 123 -34 72 0 86 3 124 28 52 34 71 76 71
155 0 45 -5 66 -21 86 -52 66 -150 74 -201 17 -61 -68 -17 -185 61 -164 18 4
21 12 19 45 -4 52 20 72 51 44 30 -27 26 -61 -12 -102 -28 -31 -39 -36 -76
-36 -162 2 -204 209 -63 307 38 26 52 30 111 29 72 0 109 -17 159 -74 28 -31
65 -128 59 -152 -4 -15 1 -18 29 -18 33 0 34 1 34 44 0 130 -90 236 -231 270
-36 9 -67 15 -70 15 -2 -1 -26 -5 -53 -10z"/>
<path d="M9050 9398 c-62 -32 -90 -77 -90 -145 0 -86 42 -141 125 -164 78 -22
186 46 201 126 15 82 -37 170 -114 193 -55 17 -71 15 -122 -10z"/>
<path d="M3243 8950 c-22 -9 -40 -51 -34 -80 10 -52 76 -66 116 -25 29 28 30
36 10 74 -20 40 -47 49 -92 31z"/>
<path d="M2095 8925 c-50 -49 -20 -125 49 -125 25 0 40 7 55 26 24 30 26 43
10 77 -11 25 -47 47 -75 47 -8 0 -26 -11 -39 -25z"/>
<path d="M2565 8724 c-108 -22 -138 -30 -188 -56 -122 -61 -200 -179 -232
-353 -48 -255 51 -430 286 -510 72 -24 104 -29 227 -33 170 -5 267 8 369 50
125 51 192 116 234 229 36 93 25 256 -24 374 -88 211 -258 307 -540 304 -62
-1 -121 -3 -132 -5z m449 -205 c60 -22 123 -82 157 -149 31 -62 38 -187 14
-259 -38 -116 -135 -191 -270 -211 -89 -12 -295 -13 -402 0 -134 15 -226 77
-274 185 -34 75 -33 200 2 275 35 74 67 110 130 144 68 38 156 46 403 40 153
-5 199 -9 240 -25z"/>
<path d="M2459 8500 c-121 -21 -207 -136 -209 -275 -1 -118 63 -222 160 -264
66 -28 232 -41 405 -31 143 9 196 24 255 70 122 97 128 320 12 433 -68 66 -90
71 -347 73 -126 2 -251 -1 -276 -6z m69 -176 c65 -73 -21 -184 -108 -139 -35
18 -50 43 -50 82 0 83 102 120 158 57z m450 25 c56 -19 76 -73 47 -128 -29
-56 -125 -58 -154 -3 -25 47 -4 113 43 132 28 12 28 12 64 -1z"/>
<path d="M2194 8661 c-23 -10 -51 -32 -62 -49 -27 -37 -29 -101 -4 -131 17
-21 17 -21 47 35 16 32 50 79 77 105 36 36 44 49 32 53 -25 10 -47 7 -90 -13z"/>
<path d="M3106 8672 c-3 -5 19 -32 48 -60 29 -29 64 -72 77 -97 27 -51 34 -54
50 -24 29 55 -7 141 -73 175 -30 15 -94 19 -102 6z"/>
<path d="M8570 7761 l0 -351 184 0 c275 0 395 30 483 121 65 68 88 127 88 229
-1 70 -5 95 -26 140 -48 103 -109 154 -224 188 -35 10 -120 16 -277 19 l-228
5 0 -351z"/>
<path d="M10098 6807 c-64 -30 -100 -86 -100 -157 0 -59 36 -120 85 -143 51
-25 127 -22 168 6 39 25 79 97 79 141 0 42 -35 108 -71 135 -36 27 -121 37
-161 18z"/>
<path d="M4546 5110 c-3 -14 -17 -133 -31 -265 -14 -132 -28 -255 -31 -272
l-5 -33 66 0 67 0 -6 48 c-3 26 -13 153 -22 282 -17 231 -26 292 -38 240z"/>
<path d="M4867 5004 c-3 -5 -11 -75 -17 -154 -6 -80 -15 -182 -19 -227 l-7
-83 48 0 c32 0 48 4 48 13 0 6 -7 104 -16 217 -15 199 -24 254 -37 234z"/>
<path d="M5129 4869 c-5 -49 -28 -290 -29 -306 0 -20 5 -23 40 -23 26 0 40 5
40 13 -2 46 -38 308 -43 314 -4 3 -7 4 -8 2z"/>
<path d="M4330 4488 c0 -38 42 -453 46 -457 2 -2 6 -2 8 0 4 3 56 450 56 475
0 2 -25 4 -55 4 -50 0 -55 -2 -55 -22z"/>
<path d="M4654 4441 c3 -36 15 -196 27 -356 11 -159 23 -296 25 -304 14 -42
24 36 48 344 15 187 29 350 32 362 4 22 2 23 -67 22 l-71 -1 6 -67z"/>
<path d="M4964 4463 c3 -27 10 -106 16 -178 23 -295 33 -303 55 -44 8 96 18
195 21 222 l6 47 -52 0 -52 0 6 -47z"/>
<path d="M2255 4963 c-33 -8 -84 -52 -101 -85 -23 -44 -15 -136 14 -173 36
-46 76 -65 136 -65 65 0 110 27 143 85 59 104 -11 232 -130 241 -23 1 -51 0
-62 -3z"/>
<path d="M11033 4931 c-105 -36 -180 -110 -209 -207 l-13 -43 87 -3 c73 -3 87
-6 90 -20 3 -16 -6 -18 -87 -18 l-91 0 0 -45 0 -44 88 -3 c69 -2 87 -6 87 -18
0 -12 -18 -16 -87 -18 l-88 -3 0 -44 0 -45 91 0 c81 0 90 -2 87 -17 -3 -15
-17 -18 -91 -21 l-87 -3 0 -44 0 -45 90 0 c70 0 90 -3 90 -14 0 -17 -27 -23
-112 -22 l-68 1 0 -47 0 -48 90 0 c73 0 90 -3 90 -15 0 -12 -17 -15 -91 -15
l-91 0 7 -27 c22 -92 88 -176 171 -218 52 -26 69 -30 144 -30 70 0 94 5 135
25 87 43 158 132 179 223 l6 27 -95 0 c-78 0 -95 3 -95 15 0 12 17 15 95 15
l95 0 0 48 0 47 -92 0 c-80 0 -93 2 -96 18 -3 15 6 17 92 17 l96 0 0 45 0 44
-92 3 c-79 3 -93 6 -96 21 -3 15 6 17 92 17 l96 0 0 45 0 44 -92 3 c-75 2 -93
6 -93 18 0 12 18 16 93 18 l92 3 0 44 0 45 -96 0 c-86 0 -95 2 -92 18 3 14 17
17 95 20 l91 3 -9 35 c-13 45 -49 105 -59 99 -4 -3 -7 3 -6 12 2 25 -90 89
-154 107 -72 20 -122 20 -187 -3z"/>
<path d="M11855 4891 c-48 -22 -78 -54 -94 -100 -7 -22 -11 -122 -11 -280 0
-267 6 -298 61 -347 45 -40 79 -44 389 -44 291 0 298 0 341 23 27 15 52 38 66
63 22 38 23 48 23 303 0 299 -5 322 -77 371 l-36 25 -311 3 c-286 2 -314 1
-351 -17z m226 -88 c1 -16 1 -36 0 -45 -2 -15 6 -18 43 -18 l45 0 3 42 c2 31
8 44 21 46 14 3 17 -4 17 -43 l0 -46 43 3 c42 3 42 3 45 46 4 57 30 58 34 1 3
-38 6 -42 31 -45 39 -4 57 -21 57 -55 0 -28 2 -29 46 -29 38 0 45 -3 42 -17
-2 -14 -14 -18 -43 -19 -40 0 -40 -1 -43 -42 l-3 -42 45 0 c39 0 46 -3 46 -20
0 -17 -7 -20 -45 -20 l-45 0 0 -45 0 -45 45 0 c38 0 45 -3 45 -20 0 -17 -7
-20 -45 -20 -45 0 -45 0 -45 -35 0 -38 -20 -55 -64 -55 -24 0 -26 -4 -26 -40
0 -29 -4 -40 -15 -40 -11 0 -15 11 -15 40 l0 40 -44 0 c-44 0 -45 0 -48 -37
-2 -26 -8 -38 -18 -38 -10 0 -16 12 -18 38 -3 37 -4 37 -48 37 l-44 0 0 -40
c0 -29 -4 -40 -15 -40 -11 0 -15 11 -15 40 0 38 -2 40 -29 40 -37 0 -61 23
-61 60 0 26 -4 29 -37 32 -26 2 -38 8 -38 18 0 10 12 16 38 18 37 3 37 4 37
48 l0 44 -41 0 c-33 0 -40 3 -37 18 2 12 14 18 41 20 36 3 37 4 37 42 0 38 -1
39 -37 42 -26 2 -38 8 -38 18 0 10 12 16 38 18 33 3 37 6 37 31 0 34 15 48 55
53 28 3 30 7 33 46 4 49 31 61 33 15z"/>
<path d="M11998 4704 c-4 -3 -7 -88 -8 -189 -1 -168 1 -185 17 -194 23 -11
353 -14 371 -3 9 7 12 53 10 198 l-3 189 -191 3 c-104 1 -193 0 -196 -4z m317
-194 l0 -125 -125 0 -125 0 -3 128 -3 128 128 -3 128 -3 0 -125z"/>
<path d="M12100 4513 l0 -93 90 0 90 0 0 93 0 92 -90 0 -90 0 0 -92z"/>
<path d="M6224 4740 c-39 -16 -83 -69 -92 -113 -28 -141 104 -250 230 -188 59
28 88 70 94 134 9 98 -63 178 -160 176 -28 0 -60 -4 -72 -9z"/>
<path d="M6904 4527 c-9 -5 -14 -24 -14 -52 l0 -45 573 0 572 0 -3 50 -4 50
-201 0 c-111 0 -361 2 -555 3 -194 1 -360 -2 -368 -6z"/>
<path d="M6896 4393 c-3 -3 -6 -381 -6 -839 l0 -834 570 0 c563 0 570 0 570
20 0 11 1 139 2 285 1 146 0 266 -3 268 -59 45 -99 82 -99 93 0 10 14 14 50
14 45 0 50 2 51 23 1 12 1 94 2 182 l0 160 -116 5 c-136 6 -157 16 -157 78 0
36 -5 42 -55 78 -52 38 -69 63 -42 65 6 1 19 2 27 3 8 2 27 3 43 4 20 2 27 7
27 22 0 32 21 67 47 79 13 6 70 11 126 11 l102 0 -2 142 -2 143 -565 2 c-310
1 -567 -1 -570 -4z m489 -52 c46 -21 77 -53 94 -98 7 -17 32 -52 57 -77 143
-149 113 -394 -62 -509 -127 -84 -305 -65 -415 46 -72 72 -94 124 -94 232 0
105 19 157 83 227 22 24 43 55 47 70 8 30 40 68 59 68 7 0 21 9 31 20 37 41
135 51 200 21z m-50 -785 c14 -10 17 -21 12 -50 -5 -30 -3 -36 7 -27 36 30
131 51 230 51 92 0 107 -3 165 -30 35 -17 66 -29 68 -26 2 2 -1 13 -8 24 -10
17 -10 25 5 47 14 20 24 26 48 23 17 -2 35 -10 41 -19 17 -27 0 -66 -33 -77
-16 -6 -30 -16 -30 -21 0 -6 20 -40 45 -76 56 -82 70 -129 70 -235 0 -75 -4
-93 -31 -150 -41 -84 -102 -145 -184 -184 -59 -28 -74 -31 -161 -31 -94 0 -96
1 -195 49 -118 59 -167 95 -200 147 -29 46 -54 137 -54 195 0 99 72 228 154
275 16 10 18 9 12 -7 -5 -14 -4 -16 4 -8 13 13 3 44 -16 44 -7 0 -21 11 -30
25 -15 23 -15 27 0 50 18 28 52 33 81 11z"/>
<path d="M7254 4319 c-17 -5 -39 -18 -49 -29 -10 -11 -26 -20 -36 -20 -10 0
-23 -9 -29 -19 -13 -25 -13 -128 0 -136 6 -3 10 3 10 14 0 11 5 23 10 26 6 3
10 15 10 26 0 26 13 24 60 -8 43 -28 106 -35 167 -20 30 8 34 6 44 -20 16 -39
23 -13 14 53 -9 71 -47 117 -109 133 -51 12 -50 12 -92 0z"/>
<path d="M7067 4132 c-86 -90 -96 -248 -22 -359 l22 -33 22 26 c23 27 94 63
124 64 24 0 21 19 -8 41 -32 26 -80 98 -89 135 -4 16 -10 56 -12 88 -3 33 -6
61 -8 63 -1 1 -14 -10 -29 -25z"/>
<path d="M7488 4078 c-4 -75 -8 -89 -41 -141 -20 -31 -48 -63 -62 -69 -37 -17
-31 -32 18 -45 23 -7 60 -28 83 -47 l41 -35 29 57 c22 43 30 74 33 130 3 65 0
80 -28 136 -17 34 -39 70 -49 80 -19 16 -20 15 -24 -66z"/>
<path d="M7186 4125 c-4 -14 -15 -34 -26 -45 -14 -14 -18 -27 -13 -54 3 -20 9
-36 13 -36 4 0 13 -14 20 -30 19 -46 75 -90 114 -90 42 0 96 36 117 78 9 17
21 37 26 44 24 31 23 64 -2 86 -14 12 -25 25 -25 30 0 4 -28 6 -63 4 -57 -4
-93 5 -148 35 -4 2 -10 -8 -13 -22z"/>
<path d="M7200 3791 c-45 -14 -89 -41 -100 -61 -9 -16 -4 -23 34 -45 108 -63
217 -61 330 6 l39 23 -36 32 c-48 45 -101 59 -138 37 -27 -16 -31 -16 -64 0
-20 9 -37 17 -38 16 -1 0 -13 -4 -27 -8z"/>
<path d="M7455 3363 c-26 -7 -75 -53 -75 -71 0 -11 3 -10 16 2 8 9 20 13 26
10 7 -4 8 -2 4 4 -7 11 51 32 90 32 41 0 83 -12 102 -30 13 -12 24 -15 33 -9
39 24 99 -2 85 -37 -6 -16 -8 -16 -24 0 -24 21 -29 20 -43 -6 -11 -20 -10 -21
3 -10 13 10 18 5 37 -37 11 -27 21 -57 21 -65 0 -9 6 -16 13 -16 14 0 47 50
47 72 0 19 -40 90 -74 129 l-29 34 -106 2 c-58 1 -115 -1 -126 -4z"/>
<path d="M7500 3250 c-19 -5 -39 -6 -44 -3 -5 4 -6 1 -3 -4 4 -6 0 -13 -8 -17
-8 -3 -23 -22 -32 -41 -17 -36 -17 -37 7 -55 37 -28 62 -28 88 -2 22 23 22 25
6 43 -13 14 -15 22 -6 31 8 8 18 5 38 -11 32 -25 47 -26 69 -4 15 15 13 18
-29 45 -25 15 -47 28 -48 27 -2 -1 -19 -5 -38 -9z"/>
<path d="M7241 3167 c-2 -80 16 -130 65 -181 51 -52 110 -74 146 -55 12 6 67
15 122 18 l101 7 -100 8 c-203 17 -292 76 -324 213 l-9 38 -1 -48z"/>
<path d="M7910 3176 c0 -28 -58 -146 -72 -146 -4 0 -5 -6 -2 -14 6 -16 -57
-102 -71 -95 -15 6 -14 31 3 57 13 23 13 24 -10 17 -39 -12 -71 -29 -75 -41
-2 -6 11 -17 29 -24 18 -8 43 -25 55 -39 l22 -26 39 42 c51 54 82 121 95 206
8 50 8 70 -1 79 -9 9 -12 5 -12 -16z"/>
<path d="M7630 2902 c0 -13 -60 -44 -119 -62 l-56 -17 59 -12 c64 -14 154 -3
208 25 38 19 35 30 -12 54 -40 20 -80 26 -80 12z"/>
<path d="M7812 4057 c-6 -7 -12 -30 -14 -52 -3 -38 -5 -40 -40 -45 l-37 -5 40
-29 c35 -27 39 -34 39 -73 0 -37 3 -43 24 -49 34 -8 323 -1 332 9 4 4 8 59 9
123 0 91 -3 117 -15 124 -24 15 -325 13 -338 -3z"/>
<path d="M8088 3469 c-13 -7 -18 -23 -18 -54 l0 -45 -37 0 -38 -1 38 -33 c27
-25 37 -41 37 -64 0 -63 -3 -62 175 -62 90 0 170 3 179 6 13 5 16 26 16 125 0
107 -2 119 -19 129 -25 13 -310 13 -333 -1z"/>
<path d="M6890 2666 c0 -60 -40 -56 575 -56 l563 0 4 35 c2 20 2 38 -1 40 -2
3 -260 5 -573 5 l-568 0 0 -24z"/>
<path d="M2870 3810 c-271 -37 -433 -141 -379 -242 30 -55 116 -103 249 -139
73 -20 109 -23 265 -23 155 -1 192 3 264 22 306 81 355 217 117 325 -102 47
-372 77 -516 57z"/>
<path d="M2480 2897 l0 -625 26 -32 c82 -97 358 -161 603 -140 222 20 388 89
421 175 10 26 15 1235 5 1235 -2 0 -31 -17 -62 -37 -120 -76 -282 -108 -516
-101 -211 7 -354 47 -444 122 l-33 28 0 -625z m600 398 c54 -28 70 -70 70
-184 0 -111 -10 -144 -56 -180 -52 -41 -149 -20 -179 39 -14 26 -20 121 -16
232 1 30 44 86 75 98 33 13 74 11 106 -5z m-230 -232 c1 -124 41 -189 133
-214 71 -19 153 17 189 84 12 22 17 56 18 113 0 86 5 101 27 83 19 -16 17
-115 -4 -179 -19 -59 -75 -114 -135 -132 -26 -8 -38 -17 -38 -30 0 -14 8 -18
40 -18 29 0 40 -4 40 -15 0 -12 -17 -15 -95 -15 -78 0 -95 3 -95 15 0 11 11
15 40 15 32 0 40 4 40 19 0 13 -12 22 -45 31 -51 14 -113 72 -132 122 -12 35
-17 180 -6 191 17 18 23 1 23 -70z"/>
<path d="M2984 3269 c-18 -9 -54 -57 -54 -73 0 -3 14 -6 31 -6 38 0 35 -24 -4
-28 -35 -4 -35 -30 1 -34 16 -2 27 -9 27 -18 0 -9 -11 -16 -27 -18 -16 -2 -28
-9 -28 -17 0 -8 12 -15 28 -17 16 -2 27 -9 27 -18 0 -10 -9 -14 -27 -13 -34 2
-36 -14 -8 -50 41 -51 131 -41 158 19 13 26 7 34 -25 34 -14 0 -23 6 -23 15 0
10 10 15 30 15 20 0 30 5 30 15 0 9 -9 15 -22 15 -13 0 -30 5 -38 10 -13 9
-13 11 0 20 8 5 24 9 35 7 12 -1 21 5 23 16 3 13 -3 17 -27 17 -21 0 -31 5
-31 15 0 9 9 15 24 15 37 0 40 16 9 50 -31 33 -76 45 -109 29z"/>
<path d="M13375 3386 c-82 -38 -135 -124 -135 -218 0 -89 6 -98 57 -98 39 0
44 2 37 18 -17 39 -15 91 4 135 24 53 91 107 134 107 26 0 28 3 28 40 0 40 0
40 -37 40 -21 0 -61 -11 -88 -24z"/>
<path d="M13530 3352 c0 -4 23 -15 51 -25 60 -22 101 -63 136 -136 22 -45 25
-62 19 -109 -4 -31 -12 -62 -18 -69 -8 -10 -3 -13 26 -13 30 0 36 4 36 21 0
11 3 18 8 16 4 -3 8 26 10 64 4 89 -17 153 -69 213 l-41 46 -79 0 c-43 0 -79
-3 -79 -8z"/>
<path d="M13434 3216 c-35 -35 -42 -69 -28 -123 5 -19 13 -23 50 -23 l44 0 0
90 c0 104 -9 113 -66 56z"/>
<path d="M13579 3084 c-1 -2 -2 -9 -3 -15 -2 -15 -47 -60 -71 -69 -12 -4 -23
-3 -27 3 -9 14 -21 -34 -16 -64 2 -19 8 -23 28 -21 69 8 128 54 156 120 8 19
13 36 12 37 -7 5 -78 13 -79 9z"/>
<path d="M9718 3585 c-133 -90 -72 -297 88 -297 91 0 164 74 164 164 0 124
-150 203 -252 133z m163 -64 c65 -66 20 -171 -73 -171 -60 0 -103 42 -103 101
0 89 113 133 176 70z"/>
<path d="M10265 3587 c-77 -43 -102 -151 -52 -226 34 -51 85 -74 152 -69 86 7
144 69 145 156 1 126 -133 202 -245 139z m156 -66 c39 -39 40 -96 3 -140 -22
-27 -33 -31 -73 -31 -39 0 -52 5 -75 29 -15 15 -28 39 -28 52 -1 13 -9 33 -17
44 -15 18 -15 19 2 6 14 -11 17 -11 17 2 0 8 14 27 31 41 44 37 101 36 140 -3z"/>
<path d="M9985 3543 c4 -10 12 -35 17 -55 10 -36 4 -80 -17 -130 -7 -16 2 -18
93 -18 l101 0 -15 35 c-17 42 -17 98 0 148 l14 37 -100 0 c-91 0 -100 -2 -93
-17z"/>
<path d="M9373 3171 c-128 -130 -233 -240 -233 -244 0 -4 7 -7 15 -7 22 0 101
-75 115 -110 7 -17 15 -30 19 -30 9 0 471 464 471 473 0 4 -6 7 -13 7 -29 0
-95 60 -117 104 -12 25 -23 45 -23 44 -1 0 -107 -107 -234 -237z"/>
<path d="M9347 3309 c-68 -36 -120 -132 -102 -189 7 -20 17 -13 116 86 59 59
106 111 103 116 -9 15 -79 7 -117 -13z"/>
<path d="M10240 3147 c0 -80 4 -127 9 -118 13 20 54 7 90 -30 17 -17 31 -35
31 -40 0 -13 -18 -11 -27 4 -4 7 -21 22 -36 34 -24 18 -32 20 -48 10 -45 -28
-6 -102 40 -77 21 11 37 -2 26 -20 -4 -6 10 -10 35 -10 23 0 54 -7 70 -15 l30
-16 0 106 c0 100 -1 107 -25 131 -28 28 -70 30 -70 2 0 -9 15 -32 33 -52 35
-39 38 -46 19 -46 -20 0 -77 69 -77 93 0 28 9 41 38 56 12 6 22 18 22 26 0 17
36 39 50 30 6 -4 10 9 10 29 0 40 -4 42 -40 21 -33 -19 -101 -19 -145 -1 l-35
15 0 -132z"/>
<path d="M10490 3218 c0 -7 14 -26 31 -44 34 -35 32 -69 -2 -38 -10 9 -16 21
-12 27 3 6 1 7 -5 3 -8 -5 -12 -47 -12 -128 l0 -120 23 14 c12 8 32 30 45 48
42 62 24 196 -32 235 -25 18 -36 19 -36 3z"/>
<path d="M8930 2705 l0 -364 55 32 55 31 1 113 c0 153 0 242 -1 376 l0 112
-55 32 -55 32 0 -364z"/>
<path d="M9080 2864 c0 -34 4 -44 16 -44 9 0 31 -15 50 -34 29 -29 34 -41 34
-81 0 -40 -5 -52 -34 -81 -19 -19 -41 -34 -50 -34 -12 0 -16 -10 -16 -45 l0
-44 42 15 c53 18 95 57 119 109 51 110 -11 241 -130 275 l-31 9 0 -45z"/>
<path d="M10295 2858 c-66 -23 -105 -81 -105 -156 0 -121 122 -196 230 -140
61 32 90 77 90 143 0 66 -29 112 -90 143 -48 24 -78 26 -125 10z m98 -59 c76
-41 77 -149 0 -188 -44 -22 -111 -2 -134 41 -16 30 -13 85 6 115 26 40 85 54
128 32z"/>
<path d="M10047 2591 c-53 -54 -97 -102 -97 -106 0 -4 42 -51 94 -104 l94 -97
4 70 c5 86 -11 111 -70 111 -27 0 -38 5 -40 18 -3 14 4 17 35 17 33 0 45 7 79
43 l41 42 -22 52 -22 53 -96 -99z"/>
<path d="M10533 2633 l-21 -55 39 -39 c33 -32 47 -39 79 -39 29 0 40 -4 40
-15 0 -8 -3 -15 -7 -16 -99 -9 -110 -21 -105 -113 l4 -69 89 89 c54 54 89 97
89 109 0 12 -36 56 -92 112 l-93 92 -22 -56z"/>
<path d="M10177 2521 c-59 -57 -44 -62 173 -62 217 0 232 5 174 61 l-38 36
-44 -24 c-36 -20 -53 -24 -105 -20 -43 2 -72 10 -92 25 l-30 21 -38 -37z"/>
<path d="M10185 2407 c-3 -7 -4 -82 -3 -167 l3 -155 165 0 165 0 0 165 0 165
-163 3 c-127 2 -164 0 -167 -11z"/>
<path d="M4748 3408 c-13 -3 -18 -6 -12 -7 18 -2 23 -49 7 -71 -19 -27 -58
-25 -90 5 -25 22 -29 23 -44 9 -10 -9 -22 -28 -27 -43 -8 -23 -6 -30 9 -39 22
-14 26 -64 6 -81 -18 -15 -29 -3 -17 20 6 9 7 25 4 33 -18 47 -24 -7 -24 -224
0 -223 2 -244 20 -281 21 -39 54 -61 113 -74 l27 -5 0 -120 c0 -79 4 -120 11
-120 6 0 71 52 145 116 l134 116 0 161 c0 187 10 219 79 279 57 48 102 58 283
59 177 2 203 6 203 34 0 13 -8 22 -25 25 -31 6 -33 34 -4 38 14 2 24 12 27 28
3 20 0 24 -19 24 -12 0 -26 5 -30 11 -8 14 16 31 34 24 7 -3 15 3 18 13 3 9
10 25 15 35 7 14 4 19 -15 27 -28 10 -793 18 -828 8z m612 -133 c0 -13 -42
-15 -315 -15 -273 0 -315 2 -315 15 0 13 42 15 315 15 273 0 315 -2 315 -15z"/>
<path d="M5610 3215 l0 -135 135 0 135 0 0 135 0 135 -135 0 -135 0 0 -135z
m230 0 l0 -95 -95 0 -95 0 0 95 0 95 95 0 95 0 0 -95z"/>
<path d="M5689 3278 c0 -2 -1 -30 -2 -62 l-2 -59 60 0 60 0 3 61 3 62 -61 0
c-33 0 -60 -1 -61 -2z"/>
<path d="M5152 3083 c-45 -22 -89 -75 -102 -123 -7 -26 -10 -122 -8 -258 3
-201 5 -220 25 -262 13 -25 39 -56 60 -70 36 -25 37 -25 316 -28 l280 -3 61
-52 c34 -28 98 -84 144 -124 45 -40 87 -73 92 -73 5 0 11 53 12 122 l3 122 40
8 c21 5 50 19 63 31 50 46 54 72 53 340 -1 136 -5 255 -8 265 -26 74 -103 121
-199 122 -54 0 -62 -3 -67 -21 -3 -11 -19 -25 -36 -32 -22 -8 -31 -18 -31 -34
0 -14 -6 -23 -15 -23 -9 0 -15 9 -15 25 0 21 -5 25 -30 25 -25 0 -30 -4 -30
-25 0 -16 -6 -25 -15 -25 -9 0 -15 9 -15 25 0 21 -5 25 -28 25 -23 0 -28 -4
-28 -22 1 -14 -6 -24 -16 -26 -14 -3 -18 3 -18 22 0 16 -6 26 -15 26 -20 0
-57 38 -50 50 4 6 -67 10 -192 10 -161 0 -204 -3 -231 -17z m556 -119 c14 -4
22 -14 22 -28 0 -11 -26 -127 -58 -256 l-58 -235 -39 2 c-21 2 -42 8 -45 13
-4 6 13 91 37 188 24 97 51 210 60 250 17 77 23 81 81 66z m-271 -86 c13 -12
23 -27 23 -34 0 -7 -40 -45 -89 -86 -50 -40 -90 -76 -90 -79 -1 -3 40 -38 89
-78 50 -40 90 -77 90 -81 0 -13 -41 -60 -53 -60 -16 0 -262 206 -262 219 0 11
245 219 259 220 6 1 20 -9 33 -21z m516 -84 c70 -58 127 -109 127 -114 0 -13
-249 -220 -265 -220 -18 0 -56 53 -47 66 4 5 44 40 90 78 45 38 82 72 82 76 0
3 -40 39 -90 80 -49 41 -90 76 -90 78 0 10 46 61 55 61 6 1 67 -47 138 -105z"/>
<path d="M6874 2229 c-41 -12 -90 -68 -104 -119 -31 -115 77 -227 194 -200 55
12 87 38 115 94 22 44 23 51 12 101 -9 42 -21 62 -52 89 -21 20 -42 36 -47 37
-4 0 -25 2 -47 4 -22 2 -54 0 -71 -6z"/>
<path d="M9550 2130 c-12 -7 -15 -37 -16 -147 -1 -75 2 -148 7 -160 8 -23 11
-23 162 -23 106 0 157 4 165 12 8 8 12 58 12 158 0 100 -4 150 -12 158 -15 15
-295 17 -318 2z m191 -70 c16 0 39 -58 39 -98 0 -92 -96 -128 -135 -51 -20 37
-19 89 1 117 18 26 52 43 72 36 8 -2 18 -4 23 -4z"/>
<path d="M8942 2132 c-9 -7 -12 -47 -10 -168 l3 -159 159 -3 c121 -2 161 1
168 10 13 21 10 302 -4 316 -14 14 -295 17 -316 4z"/>
<path d="M4392 389 c-54 -21 -113 -74 -137 -123 -32 -64 -34 -160 -5 -224 l19
-42 61 0 62 0 -31 25 c-60 52 -67 156 -14 223 41 52 96 77 163 76 74 0 129
-30 169 -90 41 -62 54 -115 46 -181 -6 -52 -6 -53 19 -53 20 0 27 7 35 38 40
141 -35 292 -170 343 -53 21 -176 25 -217 8z"/>
<path d="M10392 389 c-54 -21 -113 -74 -137 -123 -32 -64 -34 -160 -5 -224
l19 -42 61 0 62 0 -31 25 c-60 52 -67 156 -14 223 88 111 253 104 331 -13 41
-63 56 -117 48 -183 -6 -50 -5 -52 18 -52 20 0 27 7 35 38 40 141 -35 292
-170 343 -53 21 -176 25 -217 8z"/>
<path d="M4424 206 c-36 -36 -44 -78 -24 -130 22 -59 108 -55 95 3 -4 20 -1
34 10 45 20 20 29 20 49 0 25 -25 20 -70 -11 -99 l-28 -25 57 0 c65 0 70 7 70
90 0 90 -56 150 -140 150 -37 0 -50 -6 -78 -34z"/>
<path d="M10424 206 c-36 -36 -44 -78 -24 -130 22 -59 108 -55 95 3 -4 20 -1
34 10 45 20 20 29 20 49 0 23 -23 19 -58 -10 -93 l-26 -31 55 0 c63 0 68 6 69
88 0 92 -55 152 -140 152 -37 0 -50 -6 -78 -34z"/>
</g>
</svg>
