<?xml version="1.0" standalone="no"?>
<!DOCTYPE svg PUBLIC "-//W3C//DTD SVG 20010904//EN"
 "http://www.w3.org/TR/2001/REC-SVG-20010904/DTD/svg10.dtd">
<svg version="1.0" xmlns="http://www.w3.org/2000/svg"
 width="400.000000pt" height="400.000000pt" viewBox="0 0 400.000000 400.000000"
 preserveAspectRatio="xMidYMid meet">
<metadata>
Created by potrace 1.16, written by Peter Selinger 2001-2019
</metadata>
<g transform="translate(0.000000,400.000000) scale(0.100000,-0.100000)"
fill="#000000" stroke="none">
<path d="M0 2000 l0 -2000 2000 0 2000 0 0 2000 0 2000 -2000 0 -2000 0 0
-2000z m3015 650 l0 -365 -77 -3 -78 -3 0 301 0 300 -265 0 -265 0 0 69 0 69
343 -1 342 -2 0 -365z m-1602 96 l272 -265 3 265 2 264 75 0 75 0 0 -360 0
-360 -76 0 -76 0 -274 266 -274 266 0 -266 0 -266 -75 0 -75 0 0 360 0 360 76
0 76 0 271 -264z m-273 -1331 l0 -295 265 0 265 0 0 -65 0 -65 -340 0 -340 0
0 360 0 360 75 0 75 0 0 -295z m1836 261 l34 -34 0 -136 c0 -228 3 -226 -345
-226 l-245 0 0 -145 0 -145 -75 0 -75 0 0 360 0 360 336 0 336 0 34 -34z"/>
<path d="M2420 1500 l0 -90 218 2 217 3 0 85 0 85 -217 3 -218 2 0 -90z"/>
</g>
</svg>
