<?xml version="1.0" standalone="no"?>
<!DOCTYPE svg PUBLIC "-//W3C//DTD SVG 20010904//EN"
 "http://www.w3.org/TR/2001/REC-SVG-20010904/DTD/svg10.dtd">
<svg version="1.0" xmlns="http://www.w3.org/2000/svg"
 width="737.000000pt" height="326.000000pt" viewBox="0 0 737.000000 326.000000"
 preserveAspectRatio="xMidYMid meet">
<metadata>
Created by potrace 1.16, written by Peter Selinger 2001-2019
</metadata>
<g transform="translate(0.000000,326.000000) scale(0.100000,-0.100000)"
fill="#000000" stroke="none">
<path d="M5800 2520 l0 -260 50 0 50 0 0 260 0 260 -50 0 -50 0 0 -260z"/>
<path d="M4423 2734 c-37 -22 -43 -31 -43 -60 0 -30 -3 -34 -25 -34 -22 0 -25
-4 -25 -40 0 -35 3 -40 24 -40 23 0 24 -1 28 -130 3 -118 6 -132 26 -152 17
-18 33 -22 77 -22 63 0 76 8 68 46 -4 21 -11 28 -37 30 l-31 3 -3 113 -3 112
36 0 c34 0 35 1 35 40 0 39 -1 40 -35 40 l-35 0 0 60 c0 33 -3 60 -7 60 -5 -1
-27 -12 -50 -26z"/>
<path d="M3992 2641 c-40 -11 -78 -44 -91 -81 -9 -27 -8 -28 32 -32 35 -3 45
0 60 19 13 16 29 23 52 23 38 0 58 -19 53 -52 -3 -19 -14 -26 -78 -43 -97 -26
-116 -37 -130 -80 -15 -45 1 -99 37 -122 38 -25 115 -23 152 5 32 23 51 22 51
-4 0 -10 13 -14 46 -14 40 0 45 2 38 18 -4 9 -10 80 -14 157 -4 77 -11 148
-15 158 -16 39 -123 65 -193 48z"/>
<path d="M5199 2621 l-29 -29 0 24 c0 22 -4 24 -50 24 l-50 0 0 -190 0 -190
50 0 50 0 0 119 c0 106 2 121 22 146 18 23 27 26 58 22 37 -5 37 -4 47 40 10
42 9 45 -14 54 -38 14 -53 11 -84 -20z"/>
<path d="M5432 2641 c-40 -11 -78 -44 -91 -81 -9 -27 -8 -28 32 -32 35 -3 45
0 60 19 13 16 29 23 52 23 38 0 58 -19 53 -52 -3 -19 -14 -26 -78 -43 -97 -26
-116 -37 -130 -80 -15 -45 1 -99 37 -122 38 -25 115 -23 152 5 32 23 51 22 51
-4 0 -10 13 -14 46 -14 40 0 45 2 38 18 -4 9 -10 80 -14 157 -4 77 -11 148
-15 158 -16 39 -123 65 -193 48z"/>
<path d="M4612 2488 c3 -99 8 -162 17 -179 30 -60 124 -72 186 -25 l35 27 0
-25 c0 -24 3 -26 50 -26 l50 0 0 190 0 190 -50 0 -50 0 0 -129 c0 -115 -2
-131 -21 -155 -15 -19 -30 -26 -53 -26 -59 0 -66 19 -66 173 l0 137 -51 0 -51
0 4 -152z"/>
<path d="M3812 1781 c-40 -11 -78 -44 -91 -81 -9 -27 -8 -28 32 -32 35 -3 45
0 60 19 13 16 29 23 52 23 38 0 58 -19 53 -52 -3 -19 -14 -26 -78 -43 -97 -26
-116 -37 -130 -80 -15 -45 1 -99 37 -122 38 -25 115 -23 152 5 32 23 51 22 51
-4 0 -10 13 -14 46 -14 40 0 45 2 38 18 -4 9 -10 80 -14 157 -4 77 -11 148
-15 158 -16 39 -123 65 -193 48z"/>
<path d="M4356 1780 c-16 -5 -39 -19 -52 -31 l-24 -22 0 26 c0 26 -2 27 -50
27 l-50 0 0 -190 0 -190 50 0 50 0 0 130 c0 126 1 132 25 155 29 30 75 33 98
7 14 -15 17 -42 17 -155 l0 -137 51 0 51 0 -4 158 c-4 161 -9 186 -48 210 -26
16 -81 22 -114 12z"/>
<path d="M4742 1783 c-42 -8 -89 -67 -102 -127 -38 -184 110 -328 222 -216
l28 28 0 -53 c0 -44 -4 -57 -22 -69 -32 -23 -103 -21 -120 2 -17 24 -108 37
-108 15 0 -28 31 -73 63 -90 45 -23 171 -23 214 0 61 32 67 58 71 295 l4 212
-51 0 c-49 0 -51 -1 -51 -27 l0 -26 -22 21 c-24 22 -71 43 -91 41 -7 -1 -22
-4 -35 -6z m103 -79 c42 -16 60 -126 30 -184 -17 -34 -55 -47 -94 -34 -38 14
-52 49 -48 123 2 52 7 67 26 82 24 19 56 24 86 13z"/>
<path d="M5652 1781 c-40 -11 -78 -44 -91 -81 -9 -27 -8 -28 32 -32 35 -3 45
0 60 19 13 16 29 23 52 23 38 0 58 -19 53 -52 -3 -19 -14 -26 -78 -43 -97 -26
-116 -37 -130 -80 -15 -45 1 -99 37 -122 38 -25 115 -23 152 5 32 23 51 22 51
-4 0 -10 13 -14 46 -14 40 0 45 2 38 18 -4 9 -10 80 -14 157 -4 77 -11 148
-15 158 -16 39 -123 65 -193 48z"/>
<path d="M6112 1783 c-42 -8 -89 -67 -102 -127 -38 -184 110 -328 222 -216
l28 28 0 -53 c0 -44 -4 -57 -22 -69 -32 -23 -103 -21 -120 2 -17 24 -108 37
-108 15 0 -28 31 -73 63 -90 45 -23 171 -23 214 0 61 32 67 58 71 295 l4 212
-51 0 c-49 0 -51 -1 -51 -27 l0 -26 -22 21 c-24 22 -71 43 -91 41 -7 -1 -22
-4 -35 -6z m103 -79 c42 -16 60 -126 30 -184 -17 -34 -55 -47 -94 -34 -38 14
-52 49 -48 123 2 52 7 67 26 82 24 19 56 24 86 13z"/>
<path d="M6565 1775 c-54 -19 -92 -67 -105 -132 -26 -122 21 -217 119 -243 81
-21 160 11 196 80 l14 28 -47 4 c-40 3 -50 0 -65 -19 -26 -33 -79 -31 -106 3
-12 15 -21 35 -21 45 0 18 10 19 126 19 l126 0 -7 53 c-18 132 -118 203 -230
162z"/>
<path d="M5112 1628 c3 -99 8 -162 17 -179 30 -60 124 -72 186 -25 l35 27 0
-25 c0 -24 3 -26 50 -26 l50 0 0 190 0 190 -50 0 -50 0 0 -129 c0 -115 -2
-131 -21 -155 -15 -19 -30 -26 -53 -26 -59 0 -66 19 -66 173 l0 137 -51 0 -51
0 4 -152z"/>
<path d="M3929 901 l-29 -29 0 24 c0 22 -4 24 -50 24 l-50 0 0 -190 0 -190 50
0 50 0 0 119 c0 106 2 121 22 146 18 23 27 26 58 22 37 -5 37 -4 47 40 10 42
9 45 -14 54 -38 14 -53 11 -84 -20z"/>
<path d="M4187 915 c-81 -28 -121 -89 -121 -185 0 -50 5 -75 23 -106 54 -97
195 -120 281 -48 47 40 64 80 64 154 0 99 -47 166 -132 190 -48 13 -68 12
-115 -5z m124 -91 c21 -22 24 -35 24 -94 0 -85 -25 -120 -85 -120 -60 0 -85
35 -85 120 0 85 25 120 85 120 26 0 43 -7 61 -26z"/>
<path d="M4626 920 c-72 -23 -109 -87 -109 -190 0 -109 39 -172 120 -191 89
-21 166 15 198 94 l15 37 -34 0 c-19 0 -40 2 -48 5 -8 3 -19 -8 -28 -28 -12
-26 -22 -33 -51 -35 -54 -5 -73 23 -77 111 -3 62 -1 76 18 100 14 18 31 27 49
27 27 0 61 -26 61 -47 0 -8 86 -7 97 1 10 8 -46 90 -68 102 -37 19 -106 26
-143 14z"/>
<path d="M5035 915 c-54 -19 -92 -67 -105 -132 -26 -122 21 -217 119 -243 81
-21 160 11 196 80 l14 28 -47 4 c-40 3 -50 0 -65 -19 -26 -33 -79 -31 -106 3
-12 15 -21 35 -21 45 0 18 10 19 126 19 l126 0 -7 53 c-18 132 -118 203 -230
162z"/>
<path d="M5465 921 c-51 -13 -76 -31 -91 -68 -9 -20 -12 -47 -9 -63 11 -51 42
-68 193 -109 29 -8 42 -17 42 -29 0 -29 -21 -42 -67 -42 -40 0 -73 18 -84 47
-2 6 -24 7 -52 4 l-47 -6 18 -35 c37 -68 123 -101 211 -81 57 13 90 36 107 78
30 72 -4 121 -105 149 -112 31 -121 35 -121 54 0 37 88 43 117 7 15 -19 25
-22 65 -19 52 4 54 12 12 69 -32 43 -114 62 -189 44z"/>
<path d="M5845 921 c-51 -13 -76 -31 -91 -68 -9 -20 -12 -47 -9 -63 11 -51 42
-68 193 -109 29 -8 42 -17 42 -29 0 -29 -21 -42 -67 -42 -40 0 -73 18 -84 47
-2 6 -24 7 -52 4 l-47 -6 18 -35 c37 -68 123 -101 211 -81 57 13 90 36 107 78
30 72 -4 121 -105 149 -112 31 -121 35 -121 54 0 37 88 43 117 7 15 -19 25
-22 65 -19 52 4 54 12 12 69 -32 43 -114 62 -189 44z"/>
<path d="M6526 920 c-16 -5 -39 -19 -52 -31 l-24 -22 0 26 c0 26 -2 27 -50 27
l-50 0 0 -190 0 -190 50 0 50 0 0 130 c0 126 1 132 25 155 29 30 75 33 98 7
14 -15 17 -42 17 -155 l0 -137 51 0 51 0 -4 158 c-4 161 -9 186 -48 210 -26
16 -81 22 -114 12z"/>
<path d="M6902 923 c-42 -8 -89 -67 -102 -127 -38 -184 110 -328 222 -216 l28
28 0 -53 c0 -44 -4 -57 -22 -69 -32 -23 -103 -21 -120 2 -17 24 -108 37 -108
15 0 -28 31 -73 63 -90 45 -23 171 -23 214 0 61 32 67 58 71 295 l4 212 -51 0
c-49 0 -51 -1 -51 -27 l0 -26 -22 21 c-24 22 -71 43 -91 41 -7 -1 -22 -4 -35
-6z m103 -79 c42 -16 60 -126 30 -184 -17 -34 -55 -47 -94 -34 -38 14 -52 49
-48 123 2 52 7 67 26 82 24 19 56 24 86 13z"/>
<path d="M6160 730 l0 -190 50 0 50 0 0 190 0 190 -50 0 -50 0 0 -190z"/>
</g>
</svg>
